<svg xmlns="http://www.w3.org/2000/svg" width="1024" height="1024" viewBox="0.0 0.0 1024.0 1024.0"><g id="others"><path id="12" d="M 654.750,895.181 C 645.039,894.083 633.144,890.358 625,885.862 C 612.660,879.050 602.646,868.240 595.521,854.043 C 595.521,854.043 592.918,848.856 592.918,848.856 C 592.918,848.856 588.585,849.163 588.585,849.163 C 560.626,851.143 535.479,848.614 512.500,841.512 C 507.429,839.944 507.375,839.965 505.019,844.333 C 496.853,859.474 483.358,871.284 466.593,877.963 C 449.579,884.741 430.639,885.165 412.250,879.179 C 390.478,872.093 370.303,854.653 357.382,831.750 C 349.705,818.144 344.271,801.394 342.215,785 C 338.159,752.663 345.197,724.654 361.974,706.363 C 365.002,703.062 364.897,704.258 363.241,692 C 361.349,677.989 363.815,660.933 370.077,644.710 C 380.327,618.155 401.799,591.846 434.649,565.592 C 438.170,562.779 442.276,559.663 443.774,558.668 C 446.521,556.845 447.524,555.107 445.450,555.765 C 444.570,556.045 444.452,555.938 444.719,555.097 C 444.982,554.270 444.487,553.764 441.894,552.201 C 426.483,542.915 410.489,529.170 399.361,515.649 C 381.977,494.529 370.289,468.137 366.486,441.414 C 363.174,418.146 364.124,393.630 369.322,368.250 C 371.622,357.019 374.960,344.977 378.331,335.750 C 379.838,331.625 381.416,327.288 381.837,326.113 C 382.392,324.565 382.454,323.796 382.063,323.326 C 381.767,322.969 379.267,321.496 376.509,320.053 C 360.452,311.657 347.658,296.719 340.801,278.366 C 332.517,256.190 334.046,228.131 344.766,205.619 C 357.361,179.167 383.137,160.148 412.361,155.743 C 415.050,155.337 420.400,155.008 424.250,155.012 C 455.342,155.040 480.957,168.864 499.498,195.625 C 502.654,200.179 502.995,200.270 508.469,198.013 C 531.769,188.405 566.633,183.301 597.732,184.946 C 628.854,186.592 657.280,192.847 682,203.489 C 687.667,205.929 686.861,206.244 691.822,199.643 C 701.666,186.548 710.466,179.048 723.898,172.302 C 756.750,155.802 799.287,162.895 826.622,189.432 C 837.969,200.447 845.573,212.368 850.427,226.750 C 858.380,250.315 856.669,276.193 845.727,297.841 C 837.996,313.135 826.570,324.545 811.441,332.078 C 807.769,333.906 806.500,334.783 806.500,335.493 C 806.500,336.019 807.047,338.204 807.716,340.349 C 811.981,354.031 815.457,371.055 817.341,387.500 C 818.429,396.997 818.566,422.767 817.571,431 C 816.071,443.423 814.828,451.002 813.213,457.581 C 803.560,496.894 780.577,529.309 746.331,551.913 C 742.799,554.244 739.789,556.468 739.640,556.856 C 739.323,557.681 741.067,559.635 745.290,563.191 C 754.678,571.093 759.830,575.804 769.681,585.496 C 789.701,605.192 800.927,618.616 811.078,635 C 820.236,649.780 826.801,665.478 829.837,679.856 C 831.077,685.725 831.189,687.215 831.218,698 C 831.252,710.583 830.966,712.856 828.199,721.951 C 824.523,734.038 816.520,745.783 807.500,752.331 C 801.913,756.387 795.058,759.783 789.952,761.025 C 788.466,761.386 787.044,761.858 786.793,762.072 C 786.543,762.287 786.302,766.915 786.259,772.356 C 786.187,781.345 786.035,782.942 784.604,789.813 C 781.314,805.601 775.128,818.928 765.458,831.053 C 757.743,840.727 746.507,849.259 737.571,852.226 C 735.190,853.018 734.645,853.513 731.424,857.817 C 718.135,875.575 700.966,887.649 681.726,892.769 C 673.047,895.078 662.327,896.037 654.750,895.181M 671.419,878.213 C 688.731,875.643 705.065,865.393 716.693,849.801 C 725.111,838.515 730.241,828.426 733.479,816.792 C 736.423,806.213 736.747,803.452 736.708,789.250 C 736.669,775.124 736.063,770.462 733.168,762 C 726.614,742.841 711.259,727.588 692.500,721.604 C 677.683,716.876 663.342,716.923 650.500,721.740 C 646.884,723.096 639.799,726.821 636.655,729.019 C 628.222,734.915 618.424,746.006 613.005,755.787 C 604.677,770.820 599.960,794.157 601.490,812.751 C 603.331,835.125 610.354,852.014 622.886,864.201 C 631.428,872.508 639.538,876.216 654.500,878.659 C 657.606,879.167 666.595,878.930 671.419,878.213M 445.013,866.481 C 454.967,865.260 466.688,860.639 474.076,855.023 C 481.185,849.618 488.611,840.383 491.841,832.928 C 495.153,825.285 496.100,820.413 496.375,809.608 C 496.657,798.476 496.168,793.529 493.744,783 C 490.281,767.958 484.920,755.601 476.606,743.500 C 463.887,724.988 450.183,713.497 432,706.098 C 424.216,702.931 420.249,702.248 409.750,702.270 C 400.721,702.289 400.039,702.359 396,703.688 C 388.087,706.292 380.926,710.662 375.327,716.304 C 368.082,723.606 362.728,733.254 360.051,743.837 C 354.099,767.360 357.702,796.245 369.589,820.307 C 374.731,830.715 379.791,837.580 389,846.639 C 400.910,858.355 413.907,864.665 430.250,866.667 C 433.521,867.067 440.998,866.972 445.013,866.481M 586,833.047 C 587.523,832.616 587.534,832.138 586.218,823.500 C 584.765,813.963 584.856,794.619 586.395,785.798 C 588.847,771.749 591.376,763.737 596.986,752.250 C 607.960,729.780 627.200,712.129 648.216,705.251 C 656.782,702.448 661.126,701.810 671.500,701.832 C 679.497,701.848 681.596,702.028 687,703.157 C 696.702,705.185 702.029,707.239 712.657,713.048 C 716.562,715.183 716.764,714.906 716.034,708.418 C 713.005,681.490 704.463,648.762 695.503,629.750 C 693.246,624.962 692.728,621.376 693.961,619.074 C 695.523,616.155 700.706,615.062 703.860,616.986 C 706.847,618.807 710.075,624.217 714.072,634.104 C 720.499,650.003 725.089,667.403 729.740,693.500 C 732.941,711.452 733.336,713.194 735.360,718.250 C 742.077,735.032 755.994,745.037 773.764,745.858 C 785.908,746.419 795.177,742.960 802.580,735.103 C 816.188,720.660 818.816,696.430 809.696,669.500 C 805,655.635 797.872,642.767 786.569,627.750 C 772.382,608.900 750.072,586.806 729.827,571.554 C 721.986,565.648 722.173,565.721 718.750,567.250 C 717.925,567.618 715.450,568.630 713.250,569.500 C 711.050,570.370 708.575,571.375 707.750,571.734 C 706.298,572.365 703.731,573.327 698,575.387 C 682.125,581.092 657.165,586.269 635.750,588.298 C 624.667,589.347 592.383,589.777 579.500,589.045 C 540.966,586.857 502.700,579.187 473.250,567.746 C 463.390,563.916 464.748,563.989 459.945,567.037 C 457.637,568.501 454.414,570.723 452.781,571.975 C 451.149,573.226 448.983,574.812 447.969,575.500 C 443.368,578.619 429.383,591.082 420.497,599.981 C 409.947,610.549 402.616,619.280 396.355,628.739 C 392.103,635.162 385.780,647.659 384.079,653 C 380.526,664.159 378.546,678.634 379.360,687.500 C 379.714,691.363 379.851,691.764 380.855,691.907 C 381.463,691.994 383.645,691.265 385.704,690.288 C 392.997,686.827 402.112,684.987 411.750,685.030 C 418.094,685.059 419.688,685.230 425.651,686.520 C 427.414,686.902 428.732,686.968 429.011,686.689 C 429.264,686.437 430.254,682.747 431.212,678.490 C 434.082,665.732 438.502,650.920 442.305,641.314 C 450.918,619.561 462.949,598.450 468.995,594.480 C 473.827,591.307 479.493,594.703 479.498,600.775 C 479.500,602.963 479.211,603.697 477.335,606.275 C 476.144,607.912 474.542,610.246 473.774,611.462 C 472.274,613.837 465.814,626.636 464.038,630.750 C 463.445,632.125 462.620,633.866 462.204,634.620 C 461.789,635.373 461.034,637.173 460.524,638.620 C 460.015,640.066 459,642.582 458.268,644.210 C 457.101,646.806 455.514,651.132 452.841,659 C 451.103,664.116 447.012,678.064 445.998,682.331 C 445.400,684.850 444.874,688.450 444.830,690.331 C 444.830,690.331 444.750,693.750 444.750,693.750 C 444.750,693.750 449.659,696.250 449.659,696.250 C 456.255,699.610 465.360,706.460 472.918,713.750 C 493.632,733.731 506.310,758.752 512.315,791.500 C 513.010,795.293 513.164,798.616 513.076,808 C 513.014,814.462 512.917,820.964 512.857,822.447 C 512.857,822.447 512.750,825.145 512.750,825.145 C 512.750,825.145 518.464,826.822 518.464,826.822 C 529.150,829.960 543.322,832.337 556.250,833.160 C 561.269,833.480 584.785,833.390 586,833.047M 752.247,821.706 C 756.582,817.029 761.822,808.327 764.553,801.270 C 768.072,792.177 770.578,778.551 770.441,769.253 C 770.341,762.476 770.298,762.397 766.245,761.380 C 760.860,760.029 757.539,758.932 754.100,757.368 C 748.745,754.933 748.396,755.616 750.657,764.085 C 754.900,779.984 754.545,801.374 749.755,818.356 C 749.273,820.065 749.011,821.809 749.173,822.231 C 749.615,823.381 750.898,823.162 752.247,821.706M 633,571.553 C 648.828,569.989 660.671,568.113 673.161,565.189 C 679.545,563.696 690.984,560.459 695,559.010 C 725.140,548.141 746.716,534.577 765.214,514.869 C 770.544,509.190 771.277,508.252 777.414,499.250 C 788.423,483.104 795.583,464.447 799.193,442.500 C 801.021,431.389 801.497,424.873 801.492,411 C 801.484,385.824 798.087,363.304 791.012,341.500 C 786.394,327.267 777.423,308.147 769.606,295.867 C 760.457,281.499 747.997,266.459 738.313,258.097 C 714.479,237.516 692.025,224.189 665,214.583 C 638.961,205.328 610.229,201.007 579,201.647 C 547.140,202.300 522.208,208.143 496.419,221 C 486.162,226.113 480.077,229.856 466.887,239.161 C 457.432,245.831 440.026,262.036 432.690,271 C 427.453,277.397 420,287.293 417.320,291.406 C 404.255,311.457 393.747,336.932 387.069,364.750 C 384.318,376.210 383.243,383.236 381.714,399.750 C 381.228,404.985 381.382,421.862 381.981,429.250 C 383.558,448.685 388.673,467.094 396.639,482 C 404.679,497.045 416.755,512.468 427.750,521.732 C 437.552,529.991 439.467,531.481 445.250,535.350 C 462.517,546.900 480.425,554.368 509.096,561.978 C 527.577,566.883 554.909,571.064 578,572.519 C 589.478,573.242 621.611,572.678 633,571.553M 804.583,316.998 C 813.395,312.520 821.516,305.213 827.087,296.750 C 832.526,288.488 835.786,279.856 837.568,269 C 838.917,260.790 838.676,246.334 837.071,239.153 C 833.944,225.161 827.624,213.639 817.501,203.479 C 803.650,189.576 787.907,182.223 768.308,180.505 C 761.860,179.940 752.663,180.508 746.796,181.835 C 735.881,184.303 723.528,190.697 714.951,198.319 C 709.600,203.073 702.817,211.402 703.090,212.882 C 703.178,213.359 704.712,214.681 706.500,215.820 C 708.288,216.958 711.100,218.744 712.750,219.786 C 723.749,226.738 734.169,234.108 740.500,239.413 C 757.447,253.616 769.285,266.788 781.115,284.608 C 783.802,288.654 786,292.081 786,292.223 C 786,292.365 786.827,293.774 787.838,295.354 C 788.850,296.935 791.905,302.790 794.628,308.365 C 798.667,316.634 799.767,318.500 800.602,318.500 C 801.165,318.500 802.957,317.824 804.583,316.998M 393.055,300.625 C 398.551,290.187 405.613,279.161 412.150,270.808 C 432.139,245.268 457.255,223.337 481.750,210.034 C 483.400,209.138 485.031,208.173 485.375,207.891 C 486.689,206.811 485.926,205.083 482.098,200.461 C 474.686,191.514 469.084,186.605 460,181.091 C 442.990,170.767 419.281,168.820 399.500,176.123 C 379.870,183.369 363.238,200.484 356.550,220.319 C 352.880,231.202 351.723,239.069 352.154,250.188 C 352.858,268.392 359.143,283.856 370.618,295.618 C 376.007,301.144 385.587,307.473 388.592,307.494 C 389.167,307.498 390.581,305.321 393.055,300.625" stroke="#704617" fill="#704617" stroke-width="1" />
  <path id="35" d="M 749.173,822.231 C 749.011,821.809 749.273,820.065 749.755,818.356 C 754.545,801.374 754.900,779.984 750.657,764.085 C 748.396,755.616 748.745,754.933 754.100,757.368 C 757.539,758.932 760.860,760.029 766.245,761.380 C 770.298,762.397 770.341,762.476 770.441,769.253 C 770.578,778.551 768.072,792.177 764.553,801.270 C 761.822,808.327 756.582,817.029 752.247,821.706 C 750.898,823.162 749.615,823.381 749.173,822.231M 756.559,814 C 764.328,802.365 768.394,788.571 768.862,772.250 C 768.862,772.250 769.120,763.250 769.120,763.250 C 769.120,763.250 763.866,761.918 763.866,761.918 C 760.977,761.184 757.182,759.983 755.432,759.247 C 753.682,758.511 751.760,757.793 751.162,757.653 C 751.162,757.653 750.073,757.398 750.073,757.398 C 750.073,757.398 750.982,760.323 750.982,760.323 C 753.779,769.325 755.281,781.747 754.844,792.250 C 754.410,802.667 753.240,810.028 750.237,821.202 C 749.820,822.753 753.557,818.497 756.559,814" stroke="#20140A" fill="#20140A" stroke-width="1" />
  <path id="56" d="M 553.250,831.728 C 542.210,830.701 532.649,829.171 524.750,827.167 C 520.900,826.189 516.797,825.153 515.630,824.862 C 515.630,824.862 513.511,824.334 513.511,824.334 C 513.511,824.334 513.880,821.542 513.880,821.542 C 514.084,820.006 514.248,813.575 514.245,807.250 C 514.240,794.513 513.768,790.689 510.673,778.345 C 507.536,765.838 503.168,754.557 497.084,743.250 C 486.410,723.412 467.735,704.233 450.065,694.962 C 447.762,693.754 445.776,692.498 445.651,692.170 C 445.018,690.523 450.095,670.572 454.346,658 C 459.760,641.990 470.538,618.370 476.250,610 C 479.832,604.752 480.500,603.193 480.500,600.090 C 480.500,595.876 476.861,592 472.906,592 C 468.648,592 465.620,594.694 459.760,603.695 C 446.618,623.881 435.769,651.224 429.719,679.406 C 428.397,685.567 428.215,686.040 427.271,685.771 C 419.607,683.587 407.856,683.125 399.813,684.692 C 394.140,685.796 388.031,687.724 384.389,689.559 C 382.816,690.351 381.298,691 381.014,691 C 380.230,691 380.396,676.608 381.250,670.598 C 383.544,654.463 388.721,641.791 399.147,626.789 C 412.849,607.073 438,582.925 460.109,568.262 C 464.468,565.371 464.469,565.371 466.109,566.144 C 477.906,571.706 501.495,578.696 523,583.002 C 550.787,588.567 571.649,590.567 602.250,590.601 C 629.761,590.633 647.210,589.027 668.601,584.497 C 687.059,580.589 700.583,576.263 717.312,568.916 C 717.312,568.916 721.874,566.913 721.874,566.913 C 721.874,566.913 727.519,571.332 727.519,571.332 C 742.452,583.022 752.580,592.040 764.120,603.925 C 788.725,629.266 803.365,652.038 810.188,675.584 C 813.458,686.870 814.556,701.863 812.791,711.163 C 808.007,736.379 788.706,749.414 764.995,743.443 C 757.029,741.438 749.813,736.918 744.151,730.390 C 737.118,722.282 734.992,716.458 731.263,695.083 C 725.627,662.784 719.579,641.607 711.245,624.990 C 708.197,618.913 705.518,615.830 702.574,615.013 C 699.964,614.288 698.538,614.391 696.135,615.482 C 691.718,617.487 690.712,622.529 693.539,628.500 C 702.685,647.818 710.661,677.532 714.473,706.486 C 714.963,710.207 715.309,713.317 715.241,713.399 C 715.174,713.481 714.740,713.168 714.276,712.705 C 712.795,711.223 702.077,706.072 697.280,704.535 C 688.900,701.851 683.476,700.949 674,700.667 C 667.476,700.472 663.955,700.604 660.156,701.185 C 637.427,704.662 617.811,717.785 602.885,739.500 C 592.941,753.967 586.839,771.129 584.455,791.336 C 583.932,795.775 583.721,796.467 582.803,796.779 C 581.392,797.258 578.404,797.028 577.611,796.378 C 577.203,796.044 575.418,795.974 572.672,796.185 C 570.058,796.386 568.138,796.322 567.775,796.020 C 567.447,795.748 565.394,795.456 563.214,795.371 C 561.034,795.286 558.972,795.044 558.634,794.834 C 558.294,794.624 557.225,794.601 556.256,794.782 C 555.003,795.018 554.125,794.870 553.206,794.268 C 552.441,793.766 550.737,793.380 549.013,793.317 C 547.415,793.260 545.776,792.937 545.370,792.600 C 544.964,792.263 543.420,791.886 541.941,791.763 C 537.954,791.432 521.871,786.088 520.726,784.715 C 520.134,784.004 513.080,780.750 512.786,781.053 C 512.681,781.162 513.016,782.938 513.532,785 C 515.458,792.713 516.173,804.787 515.500,818.250 C 515.500,818.250 515.250,823.250 515.250,823.250 C 515.250,823.250 524.672,825.602 524.672,825.602 C 529.854,826.896 536.042,828.186 538.422,828.468 C 540.803,828.750 545.450,829.305 548.750,829.702 C 556.043,830.578 578.291,831.202 581.750,830.628 C 584.641,830.148 584.460,831.422 583.260,820.061 C 582.444,812.347 582.227,797.727 582.922,797.298 C 583.154,797.155 583.484,801.361 583.655,806.644 C 583.955,815.845 585.009,826.319 586.004,829.972 C 586.262,830.919 586.348,831.819 586.196,831.972 C 585.583,832.585 560.463,832.399 553.250,831.728M 782.504,742.720 C 787.602,741.752 790.580,740.596 794.738,737.971 C 802.135,733.298 808.345,723.625 811.085,712.500 C 812.317,707.501 812.773,697.486 812.042,691.500 C 811.484,686.926 809.142,676.396 807.761,672.250 C 806.816,669.413 802.246,658.087 801.205,656 C 796.765,647.107 787.528,632.849 781.444,625.500 C 767.938,609.186 756.319,597.342 739.471,582.718 C 736.599,580.226 732.788,577.144 731,575.869 C 729.212,574.594 726.514,572.527 725.004,571.275 C 723.493,570.024 721.949,569 721.574,569 C 721.198,569 718.609,569.991 715.821,571.202 C 705.219,575.808 696.162,578.952 684.250,582.163 C 676.269,584.316 659.817,587.846 655.750,588.280 C 654.100,588.456 651.850,588.789 650.750,589.020 C 649.650,589.252 644.138,589.961 638.500,590.596 C 629.199,591.643 626.029,591.750 604.250,591.750 C 578.629,591.750 569.396,591.297 552.250,589.196 C 523.703,585.697 493.358,578.529 472.517,570.361 C 472.517,570.361 464.783,567.330 464.783,567.330 C 464.783,567.330 462.267,568.732 462.267,568.732 C 460.882,569.504 459.188,570.574 458.500,571.110 C 457.812,571.645 455.188,573.583 452.669,575.417 C 442.664,582.697 431.394,592.569 420.053,603.987 C 410.446,613.659 409.386,614.879 402.918,623.703 C 401.084,626.203 399.003,628.956 398.293,629.818 C 397.582,630.681 397,631.552 397,631.753 C 397,631.955 396.159,633.499 395.132,635.184 C 393.146,638.442 392.631,639.445 389.711,645.750 C 386.717,652.215 384.969,657.918 382.967,667.750 C 382.267,671.195 381.530,688.037 382.053,688.675 C 382.244,688.909 383.379,688.535 384.575,687.844 C 387.110,686.380 391.645,684.996 399,683.442 C 405.659,682.036 418.260,681.907 423.656,683.190 C 427.815,684.179 427.500,684.188 427.500,683.074 C 427.500,681.471 432.775,661.034 435.006,653.992 C 440.462,636.772 447.370,621.143 455.445,607.750 C 462.895,595.395 465.717,592.185 470.214,590.952 C 476.204,589.310 482,593.985 482,600.457 C 482,603.551 481.423,604.893 478.332,608.976 C 476.990,610.750 475.769,612.550 475.620,612.976 C 475.470,613.402 475.038,614.113 474.658,614.558 C 473.740,615.631 468.253,626.871 465.289,633.750 C 463.986,636.775 462.497,640.150 461.981,641.250 C 456.914,652.039 448.559,679.276 447.221,689.363 C 447.221,689.363 446.887,691.875 446.887,691.875 C 446.887,691.875 449.783,693.201 449.783,693.201 C 456.458,696.256 470.680,707.062 477.067,713.928 C 479.808,716.876 480.889,717.739 481.293,717.304 C 481.610,716.962 481.973,713.094 482.168,707.985 C 482.923,688.247 486.488,672.812 493.999,656.750 C 500.853,642.095 512.112,627.774 523.250,619.544 C 525.175,618.122 527.425,616.310 528.250,615.517 C 533.149,610.808 553.975,602.420 558.511,603.327 C 558.790,603.100 563.041,602.424 563.268,602.529 C 563.072,602.212 564.186,602.121 566.356,602.276 C 568.806,602.451 569.472,602.380 568.750,602.021 C 567.813,601.556 582.812,601.643 587.500,602.130 C 588.462,602.231 589.995,602.355 590.904,602.406 C 591.814,602.457 592.441,602.691 592.297,602.924 C 591.912,603.548 597.165,604.604 598.714,604.215 C 599.634,603.984 599.995,604.068 599.894,604.491 C 599.715,605.249 603.899,606.587 605.188,606.186 C 605.761,606.006 606.002,606.092 605.808,606.406 C 605.510,606.888 608.333,608.159 612.168,609.351 C 613.251,608.935 614.587,609.455 614.170,610.130 C 612.459,609.551 618.192,612.002 616.408,611.307 C 617.098,610.880 620.135,612.378 619.771,612.965 C 620.040,613.750 625.302,616.090 625.838,617.433 C 626.567,617.271 628.003,618.091 628.298,619.077 C 627.651,618.032 628.549,618.473 630.775,620.298 C 631.981,621.286 632.919,622.345 632.860,622.649 C 632.799,622.955 632.975,623.232 633.250,623.266 C 633.966,623.355 642,631.354 642,631.979 C 642,632.265 642.198,632.500 642.439,632.500 C 643.120,632.500 648.269,640.481 651.246,646.149 C 655.344,653.953 660.516,667.760 659.784,668.944 C 659.625,669.202 659.747,669.499 660.058,669.602 C 660.369,669.706 660.648,670.719 660.677,671.854 C 660.707,672.988 660.876,673.827 661.054,673.716 C 661.578,673.393 662.996,683.592 662.728,685.760 C 662.535,687.317 662.591,687.532 662.984,686.750 C 663.346,686.029 663.423,686.867 663.258,689.750 C 663.093,692.609 663.163,693.394 663.503,692.500 C 663.842,691.608 663.902,692.284 663.711,694.859 C 663.389,699.199 662.535,698.830 673.750,699.202 C 687.428,699.656 699.918,702.836 709.673,708.348 C 713.890,710.731 713.975,710.684 713.215,706.375 C 712.863,704.381 712.323,700.950 712.014,698.750 C 711.421,694.518 710.996,692.163 709.442,684.500 C 707.864,676.722 706.451,670.455 705.497,667 C 705.004,665.212 704.101,661.950 703.491,659.750 C 702.144,654.891 699.987,648.336 697.682,642.097 C 695.993,637.527 695.019,635.228 692.237,629.250 C 689.899,624.225 689.934,619.343 692.330,616.496 C 694.072,614.427 696.509,613.500 700.213,613.500 C 705.708,613.500 708.531,616.071 713.119,625.250 C 720.478,639.976 726.047,659.446 731.496,689.500 C 735.779,713.115 737.250,718.237 741.644,724.833 C 748.021,734.407 758.139,741.050 768.893,742.725 C 774.785,743.642 777.645,743.641 782.504,742.720" stroke="#FFD49F" fill="#FFD49F" stroke-width="1" />
  <path id="35" d="M 578,572.519 C 530.389,569.519 484.007,557.852 455.322,541.661 C 449.596,538.429 439.890,531.868 435.750,528.430 C 422.943,517.796 420.170,515.152 414.060,507.750 C 394.379,483.906 384.442,459.589 381.981,429.250 C 381.382,421.862 381.228,404.985 381.714,399.750 C 383.243,383.236 384.318,376.210 387.069,364.750 C 393.747,336.932 404.255,311.457 417.320,291.406 C 420,287.293 427.453,277.397 432.690,271 C 440.026,262.036 457.432,245.831 466.887,239.161 C 480.077,229.856 486.162,226.113 496.419,221 C 522.208,208.143 547.140,202.300 579,201.647 C 610.229,201.007 638.961,205.328 665,214.583 C 678.315,219.315 693.519,226.471 704.869,233.346 C 719.683,242.321 738.259,256.975 747.078,266.644 C 760.732,281.613 769.907,294.828 778.740,312.250 C 791.472,337.363 797.973,360.545 800.752,390.750 C 801.606,400.027 801.730,420.639 800.982,429 C 798.576,455.930 790.462,480.113 777.414,499.250 C 771.277,508.252 770.544,509.190 765.214,514.869 C 746.716,534.577 725.140,548.141 695,559.010 C 687.088,561.864 670.184,566.157 659.750,567.962 C 639.484,571.470 627.044,572.526 603.500,572.739 C 592.913,572.834 581.438,572.736 578,572.519M 625.750,570.981 C 639.476,569.975 657.721,567.427 669,564.941 C 687.415,560.882 703.427,555.283 718.750,547.543 C 743.793,534.892 763.773,517.572 777.634,496.500 C 782.548,489.028 788.982,475.657 791.948,466.750 C 801.105,439.253 802.860,406.173 796.991,371.654 C 790.508,333.510 773.963,298.736 748.985,270.750 C 727.341,246.499 694.045,225.377 659.500,213.982 C 630.258,204.335 592.096,200.390 560.500,203.748 C 517.210,208.347 479.363,226.355 447.137,257.683 C 419.937,284.125 402.885,313.332 391.342,353.250 C 387.611,366.154 385.188,378.398 383.399,393.397 C 382.541,400.584 382.543,426.584 383.402,433.500 C 386.182,455.880 393.164,475.560 404.246,492.250 C 411.522,503.207 418.216,511.180 426.632,518.912 C 448.442,538.951 471.005,550.409 508.500,560.490 C 529.482,566.130 557.947,570.354 582.722,571.504 C 593.244,571.992 615.687,571.720 625.750,570.981" stroke="#20140A" fill="#20140A" stroke-width="1" />
  <path id="7" d="M 768.893,742.725 C 758.139,741.050 748.021,734.407 741.644,724.833 C 737.250,718.237 735.779,713.115 731.496,689.500 C 726.047,659.446 720.478,639.976 713.119,625.250 C 710.014,619.037 708.269,616.649 705.596,614.953 C 701.543,612.383 695.167,613.125 692.330,616.496 C 689.934,619.343 689.899,624.225 692.237,629.250 C 695.019,635.228 695.993,637.527 697.682,642.097 C 699.987,648.336 702.144,654.891 703.491,659.750 C 704.101,661.950 705.004,665.212 705.497,667 C 706.451,670.455 707.864,676.722 709.442,684.500 C 710.996,692.163 711.421,694.518 712.014,698.750 C 712.323,700.950 712.863,704.381 713.215,706.375 C 713.975,710.684 713.890,710.731 709.673,708.348 C 699.918,702.836 687.428,699.656 673.750,699.202 C 662.535,698.830 663.389,699.199 663.711,694.859 C 663.902,692.284 663.842,691.608 663.503,692.500 C 663.163,693.394 663.093,692.609 663.258,689.750 C 663.423,686.867 663.346,686.029 662.984,686.750 C 662.591,687.532 662.535,687.317 662.728,685.760 C 662.996,683.592 661.578,673.393 661.054,673.716 C 660.876,673.827 660.707,672.988 660.677,671.854 C 660.648,670.719 660.369,669.706 660.058,669.602 C 659.747,669.499 659.625,669.202 659.784,668.944 C 660.516,667.760 655.344,653.953 651.246,646.149 C 648.269,640.481 643.120,632.500 642.439,632.500 C 642.198,632.500 642,632.265 642,631.979 C 642,631.354 633.966,623.355 633.250,623.266 C 632.975,623.232 632.799,622.955 632.860,622.649 C 632.919,622.345 631.981,621.286 630.775,620.298 C 628.549,618.473 627.651,618.032 627.739,618.518 C 628.003,618.091 626.567,617.271 625.838,617.433 C 625.477,615.881 619.388,613.519 619.771,612.965 C 620.135,612.378 617.098,610.880 616.408,611.307 C 618.063,611.919 612.365,609.447 614.170,610.130 C 614.587,609.455 613.251,608.935 610,608.292 C 608.333,608.159 605.510,606.888 605.808,606.406 C 606.002,606.092 605.761,606.006 605.188,606.186 C 603.899,606.587 599.715,605.249 599.894,604.491 C 599.995,604.068 599.634,603.984 598.714,604.215 C 597.165,604.604 591.912,603.548 592.297,602.924 C 592.441,602.691 591.814,602.457 590.904,602.406 C 589.995,602.355 588.462,602.231 587.500,602.130 C 582.812,601.643 567.813,601.556 568.750,602.021 C 569.472,602.380 568.806,602.451 566.356,602.276 C 564.186,602.121 563.072,602.212 563.268,602.529 C 561.947,602.447 558.360,603.319 558.511,603.327 C 553.975,602.420 533.149,610.808 528.250,615.517 C 527.425,616.310 525.175,618.122 523.250,619.544 C 512.112,627.774 500.853,642.095 493.999,656.750 C 486.488,672.812 482.923,688.247 482.168,707.985 C 481.973,713.094 481.610,716.962 481.293,717.304 C 480.889,717.739 479.808,716.876 477.067,713.928 C 470.680,707.062 456.458,696.256 449.783,693.201 C 449.783,693.201 446.887,691.875 446.887,691.875 C 446.887,691.875 447.221,689.363 447.221,689.363 C 448.559,679.276 456.914,652.039 461.981,641.250 C 462.497,640.150 463.986,636.775 465.289,633.750 C 468.253,626.871 473.740,615.631 474.658,614.558 C 475.038,614.113 475.470,613.402 475.620,612.976 C 475.769,612.550 476.990,610.750 478.332,608.976 C 481.423,604.893 482,603.551 482,600.457 C 482,593.985 476.204,589.310 470.214,590.952 C 465.717,592.185 462.895,595.395 455.445,607.750 C 447.370,621.143 440.462,636.772 435.006,653.992 C 432.775,661.034 427.500,681.471 427.500,683.074 C 427.500,684.188 427.815,684.179 423.656,683.190 C 418.260,681.907 405.659,682.036 399,683.442 C 391.645,684.996 387.110,686.380 384.575,687.844 C 383.379,688.535 382.244,688.909 382.053,688.675 C 381.530,688.037 382.267,671.195 382.967,667.750 C 384.969,657.918 386.717,652.215 389.711,645.750 C 392.631,639.445 393.146,638.442 395.132,635.184 C 396.159,633.499 397,631.955 397,631.753 C 397,631.552 397.582,630.681 398.293,629.818 C 399.003,628.956 401.084,626.203 402.918,623.703 C 409.386,614.879 410.446,613.659 420.053,603.987 C 431.394,592.569 442.664,582.697 452.669,575.417 C 455.188,573.583 457.812,571.645 458.500,571.110 C 459.188,570.574 460.882,569.504 462.267,568.732 C 462.267,568.732 464.783,567.330 464.783,567.330 C 464.783,567.330 472.517,570.361 472.517,570.361 C 493.358,578.529 523.703,585.697 552.250,589.196 C 569.396,591.297 578.629,591.750 604.250,591.750 C 626.029,591.750 629.199,591.643 638.500,590.596 C 644.138,589.961 649.650,589.252 650.750,589.020 C 651.850,588.789 654.100,588.456 655.750,588.280 C 659.817,587.846 676.269,584.316 684.250,582.163 C 696.162,578.952 705.219,575.808 715.821,571.202 C 718.609,569.991 721.198,569 721.574,569 C 721.949,569 723.493,570.024 725.004,571.275 C 726.514,572.527 729.212,574.594 731,575.869 C 732.788,577.144 736.599,580.226 739.471,582.718 C 756.319,597.342 767.938,609.186 781.444,625.500 C 787.528,632.849 796.765,647.107 801.205,656 C 802.246,658.087 806.816,669.413 807.761,672.250 C 809.142,676.396 811.484,686.926 812.042,691.500 C 812.773,697.486 812.317,707.501 811.085,712.500 C 808.345,723.625 802.135,733.298 794.738,737.971 C 790.580,740.596 787.602,741.752 782.504,742.720 C 777.645,743.641 774.785,743.642 768.893,742.725" stroke="#ECB06A" fill="#ECB06A" stroke-width="1" />
  <path id="56" d="M 582.722,571.504 C 557.947,570.354 529.482,566.130 508.500,560.490 C 471.005,550.409 448.442,538.951 426.632,518.912 C 418.216,511.180 411.522,503.207 404.246,492.250 C 393.164,475.560 386.182,455.880 383.402,433.500 C 382.543,426.584 382.541,400.584 383.399,393.397 C 385.629,374.708 389.082,359.155 394.755,342.250 C 402.815,318.234 411.947,300.385 425.312,282.526 C 432.988,272.267 437.988,266.576 447.137,257.683 C 492.294,213.784 547.361,196.419 615.750,204.517 C 642.797,207.719 666.255,214.691 689.663,226.486 C 712.468,237.977 734.221,254.208 748.985,270.750 C 773.963,298.736 790.508,333.510 796.991,371.654 C 804.152,413.773 800.042,452.722 785.269,482.750 C 774.211,505.226 758.409,522.748 735.500,537.937 C 714.286,552.001 687.082,562.145 657,567.207 C 647.908,568.737 634.863,570.313 625.750,570.981 C 615.687,571.720 593.244,571.992 582.722,571.504M 615.250,569.989 C 655.624,568.378 690.601,560.253 718.250,546.062 C 748.703,530.432 770.315,509.416 783.891,482.229 C 793.985,462.017 799,438.421 799,411.146 C 799,382.970 794.428,357.161 785.245,333.500 C 775.602,308.651 764.056,289.779 746.813,270.685 C 738.967,261.997 735.594,258.874 725.750,251.191 C 717.390,244.667 711.232,240.343 705,236.621 C 669.544,215.452 634.203,205.403 591,204.204 C 565.741,203.504 543.149,206.359 524,212.673 C 504.303,219.168 488.474,227.143 472.205,238.769 C 448.813,255.487 431.777,273.439 417.057,296.884 C 413.478,302.582 413.481,302.577 408.942,311.601 C 399.444,330.483 391.416,353.933 387.578,374 C 378.496,421.493 385.508,463.772 407.604,494.750 C 424.950,519.067 446.949,536.452 474.918,547.947 C 488.468,553.515 509.760,559.747 527,563.191 C 548.384,567.462 564.626,569.313 586.351,569.958 C 593.446,570.169 600.038,570.375 601,570.414 C 601.962,570.455 608.375,570.263 615.250,569.989" stroke="#FFD49F" fill="#FFD49F" stroke-width="1" />
  <path id="35" d="M 430.250,866.667 C 413.907,864.665 400.910,858.355 389,846.639 C 379.791,837.580 374.731,830.715 369.589,820.307 C 354.830,790.431 353.115,754.064 365.322,729.846 C 368.365,723.807 375.257,715.605 380.750,711.484 C 384.434,708.720 391.164,705.279 396,703.688 C 400.039,702.359 400.721,702.289 409.750,702.270 C 418.104,702.253 419.793,702.390 423.750,703.411 C 446.663,709.322 468.007,727.203 482.195,752.375 C 487.125,761.124 491.188,771.894 493.744,783 C 496.168,793.529 496.657,798.476 496.375,809.608 C 496.100,820.413 495.153,825.285 491.841,832.928 C 488.611,840.383 481.185,849.618 474.076,855.023 C 469.463,858.529 459.762,863.216 454,864.721 C 446.464,866.688 436.857,867.476 430.250,866.667M 445.885,865.218 C 460.240,863.087 472.628,856.447 481.816,845.962 C 491.986,834.355 496.028,821.732 495.334,803.750 C 494.262,776.024 481.935,747.675 462.418,728.061 C 440.991,706.525 414.594,697.972 393.773,705.818 C 375.970,712.527 363.880,728.520 359.720,750.869 C 358.467,757.598 358.205,773.284 359.216,781 C 362.622,806.990 372.539,828.419 388.701,844.713 C 394.909,850.972 400.416,854.933 408.250,858.773 C 420.938,864.991 433.231,867.097 445.885,865.218" stroke="#20140A" fill="#20140A" stroke-width="1" />
  <path id="35" d="M 556.250,833.160 C 543.322,832.337 529.150,829.960 518.464,826.822 C 518.464,826.822 512.750,825.145 512.750,825.145 C 512.750,825.145 512.857,822.447 512.857,822.447 C 512.917,820.964 513.014,814.462 513.076,808 C 513.194,795.350 512.983,793.451 510.003,780.471 C 506.476,765.111 498.776,746.981 490.638,734.883 C 479.817,718.793 463.243,703.168 449.659,696.250 C 449.659,696.250 444.750,693.750 444.750,693.750 C 444.750,693.750 444.830,690.331 444.830,690.331 C 444.874,688.450 445.400,684.850 445.998,682.331 C 447.012,678.064 451.103,664.116 452.841,659 C 455.514,651.132 457.101,646.806 458.268,644.210 C 459,642.582 460.015,640.066 460.524,638.620 C 461.034,637.173 461.789,635.373 462.204,634.620 C 462.620,633.866 463.445,632.125 464.038,630.750 C 465.814,626.636 472.274,613.837 473.774,611.462 C 474.542,610.246 476.144,607.912 477.335,606.275 C 479.211,603.697 479.500,602.963 479.498,600.775 C 479.493,594.703 473.827,591.307 468.995,594.480 C 462.949,598.450 450.918,619.561 442.305,641.314 C 438.502,650.920 434.082,665.732 431.212,678.490 C 430.254,682.747 429.264,686.437 429.011,686.689 C 428.732,686.968 427.414,686.902 425.651,686.520 C 419.688,685.230 418.094,685.059 411.750,685.030 C 402.112,684.987 392.997,686.827 385.704,690.288 C 383.645,691.265 381.463,691.994 380.855,691.907 C 379.851,691.764 379.714,691.363 379.360,687.500 C 378.546,678.634 380.526,664.159 384.079,653 C 385.780,647.659 392.103,635.162 396.355,628.739 C 402.616,619.280 409.947,610.549 420.497,599.981 C 429.383,591.082 443.368,578.619 447.969,575.500 C 448.983,574.812 451.149,573.226 452.781,571.975 C 454.414,570.723 457.637,568.501 459.945,567.037 C 464.748,563.989 463.390,563.916 473.250,567.746 C 502.700,579.187 540.966,586.857 579.500,589.045 C 592.383,589.777 624.667,589.347 635.750,588.298 C 657.165,586.269 682.125,581.092 698,575.387 C 703.731,573.327 706.298,572.365 707.750,571.734 C 708.575,571.375 711.050,570.370 713.250,569.500 C 715.450,568.630 717.925,567.618 718.750,567.250 C 722.173,565.721 721.986,565.648 729.827,571.554 C 739.452,578.805 749.420,587.452 758.582,596.500 C 774.746,612.463 784.214,623.605 793.846,638 C 811.730,664.730 818.646,692.370 813.172,715.239 C 810.030,728.361 801.553,738.923 790.567,743.399 C 780.862,747.355 766.173,746.618 756.346,741.684 C 747.096,737.039 739.474,728.529 735.360,718.250 C 733.336,713.194 732.941,711.452 729.740,693.500 C 725.089,667.403 720.499,650.003 714.072,634.104 C 710.075,624.217 706.847,618.807 703.860,616.986 C 700.706,615.062 695.523,616.155 693.961,619.074 C 692.728,621.376 693.246,624.962 695.503,629.750 C 704.463,648.762 713.005,681.490 716.034,708.418 C 716.764,714.906 716.562,715.183 712.657,713.048 C 702.029,707.239 696.702,705.185 687,703.157 C 681.596,702.028 679.497,701.848 671.500,701.832 C 661.126,701.810 656.782,702.448 648.216,705.251 C 627.200,712.129 607.960,729.780 596.986,752.250 C 591.376,763.737 588.847,771.749 586.395,785.798 C 584.856,794.619 584.765,813.963 586.218,823.500 C 587.534,832.138 587.523,832.616 586,833.047 C 584.785,833.390 561.269,833.480 556.250,833.160M 586.201,831.967 C 586.356,831.812 586.276,830.961 586.023,830.078 C 583.824,822.413 583.088,800.048 584.679,789.250 C 587.736,768.500 593.183,753.614 602.885,739.500 C 617.811,717.785 637.427,704.662 660.156,701.185 C 663.955,700.604 667.476,700.472 674,700.667 C 683.476,700.949 688.900,701.851 697.280,704.535 C 702.077,706.072 712.795,711.223 714.276,712.705 C 714.740,713.168 715.174,713.481 715.241,713.399 C 715.309,713.317 714.963,710.207 714.473,706.486 C 710.661,677.532 702.685,647.818 693.539,628.500 C 690.712,622.529 691.718,617.487 696.135,615.482 C 698.538,614.391 699.964,614.288 702.574,615.013 C 705.518,615.830 708.197,618.913 711.245,624.990 C 719.579,641.607 725.627,662.784 731.263,695.083 C 734.992,716.458 737.118,722.282 744.151,730.390 C 749.813,736.918 757.029,741.438 764.995,743.443 C 778.986,746.966 792.281,743.816 801.064,734.895 C 815.336,720.400 817.624,694.884 807.194,666.554 C 796.236,636.790 767.947,602.980 727.519,571.332 C 727.519,571.332 721.874,566.913 721.874,566.913 C 721.874,566.913 717.312,568.916 717.312,568.916 C 700.583,576.263 687.059,580.589 668.601,584.497 C 647.210,589.027 629.761,590.633 602.250,590.601 C 571.649,590.567 550.787,588.567 523,583.002 C 501.495,578.696 477.906,571.706 466.109,566.144 C 464.469,565.371 464.468,565.371 460.109,568.262 C 438,582.925 412.849,607.073 399.147,626.789 C 388.721,641.791 383.544,654.463 381.250,670.598 C 380.396,676.608 380.230,691 381.014,691 C 381.298,691 382.816,690.351 384.389,689.559 C 388.031,687.724 394.140,685.796 399.813,684.692 C 407.856,683.125 419.607,683.587 427.271,685.771 C 428.215,686.040 428.397,685.567 429.719,679.406 C 435.769,651.224 446.618,623.881 459.760,603.695 C 465.620,594.694 468.648,592 472.906,592 C 476.861,592 480.500,595.876 480.500,600.090 C 480.500,603.193 479.832,604.752 476.250,610 C 470.538,618.370 459.760,641.990 454.346,658 C 450.095,670.572 445.018,690.523 445.651,692.170 C 445.776,692.498 447.762,693.754 450.065,694.962 C 467.735,704.233 486.410,723.412 497.084,743.250 C 503.168,754.557 507.536,765.838 510.673,778.345 C 513.768,790.689 514.240,794.513 514.245,807.250 C 514.248,813.575 514.084,820.006 513.880,821.542 C 513.880,821.542 513.511,824.334 513.511,824.334 C 513.511,824.334 515.630,824.862 515.630,824.862 C 516.797,825.153 520.900,826.189 524.750,827.167 C 538.891,830.755 554.967,832.466 573.334,832.338 C 580.255,832.289 586.045,832.123 586.201,831.967" stroke="#20140A" fill="#20140A" stroke-width="1" />
  <path id="56" d="M 428.536,865.207 C 421.335,864.159 415.392,862.274 408.250,858.773 C 400.416,854.933 394.909,850.972 388.701,844.713 C 372.539,828.419 362.622,806.990 359.216,781 C 358.205,773.284 358.467,757.598 359.720,750.869 C 362.731,734.696 370.360,720.952 380.598,713.256 C 389.959,706.219 398.983,703.026 409.560,703.009 C 419.011,702.993 427.564,705.073 437.250,709.741 C 463.216,722.255 483.966,749.411 492.082,781.500 C 496.030,797.110 496.547,812.337 493.529,824.136 C 488.890,842.272 474.236,857.193 455.199,863.166 C 446.762,865.813 437.548,866.518 428.536,865.207M 451,862.672 C 468.061,858.258 482.502,846.628 489.182,831.923 C 491.204,827.472 493.245,819.839 494.043,813.750 C 495.679,801.251 491.596,779.926 484.374,763.250 C 480.315,753.876 473.686,742.876 468.255,736.500 C 464.021,731.528 456.820,724.458 452.750,721.275 C 448.868,718.240 441.812,713.500 441.175,713.500 C 441.002,713.500 439.824,712.867 438.555,712.093 C 435.389,710.160 428.055,707.299 422.702,705.908 C 418.875,704.913 417.057,704.753 409.750,704.768 C 401.877,704.784 400.954,704.884 397.250,706.128 C 390.437,708.415 382.058,713.562 376.419,718.924 C 373.714,721.497 371.500,723.900 371.500,724.264 C 371.500,724.629 370.938,725.370 370.250,725.910 C 369.562,726.452 369,727.184 369,727.539 C 369,728.112 367.641,731.393 366.516,733.535 C 365.751,734.992 363.521,740.772 362.760,743.270 C 360.429,750.922 359.068,766.595 359.959,775.524 C 361.621,792.175 365.513,806.067 372.316,819.631 C 376.938,828.847 382.913,836.865 391.312,845.122 C 401.957,855.588 414.904,861.931 429.758,863.955 C 435.324,864.713 445.481,864.100 451,862.672" stroke="#FFD49F" fill="#FFD49F" stroke-width="1" />
  <path id="7" d="M 750.237,821.202 C 753.240,810.028 754.410,802.667 754.844,792.250 C 755.281,781.747 753.779,769.325 750.982,760.323 C 750.982,760.323 750.073,757.398 750.073,757.398 C 750.073,757.398 751.162,757.653 751.162,757.653 C 751.760,757.793 753.682,758.511 755.432,759.247 C 757.182,759.983 760.977,761.184 763.866,761.918 C 763.866,761.918 769.120,763.250 769.120,763.250 C 769.120,763.250 768.862,772.250 768.862,772.250 C 768.394,788.571 764.328,802.365 756.559,814 C 753.557,818.497 749.820,822.753 750.237,821.202M 755.863,812.375 C 758.270,808.577 761.048,803.194 762.486,799.541 C 763.890,795.971 766.294,786.645 766.942,782.250 C 767.851,776.074 768.206,767.186 767.558,766.785 C 767.239,766.588 765.914,767.025 764.614,767.756 C 761.415,769.554 757.361,771.068 756.948,770.617 C 756.763,770.415 756.228,768.907 755.760,767.264 C 755.760,767.264 754.908,764.279 757.510,762.204 C 757.510,762.204 755.307,761.134 755.307,761.134 C 752.814,759.923 752.359,760.065 753.035,761.843 C 756.654,771.362 756.918,797.389 753.544,812 C 752.487,816.578 753.133,816.683 755.863,812.375" stroke="#ECB06A" fill="#ECB06A" stroke-width="1" />
  <path id="7" d="M 586.351,569.958 C 564.626,569.313 548.384,567.462 527,563.191 C 509.760,559.747 488.468,553.515 474.918,547.947 C 446.949,536.452 424.950,519.067 407.604,494.750 C 390.365,470.580 382.030,438.688 383.955,404.250 C 385.176,382.404 388.897,363.514 396.169,342.250 C 400.755,328.839 404.841,319.435 412.786,304 C 416.236,297.300 427.587,280.994 434.020,273.500 C 445.704,259.888 456.882,249.720 472.205,238.769 C 488.474,227.143 504.303,219.168 524,212.673 C 543.149,206.359 565.741,203.504 591,204.204 C 634.203,205.403 669.544,215.452 705,236.621 C 711.232,240.343 717.390,244.667 725.750,251.191 C 735.594,258.874 738.967,261.997 746.813,270.685 C 764.056,289.779 775.602,308.651 785.245,333.500 C 792.334,351.765 797.106,373.577 798.500,394.094 C 800.833,428.401 795.896,458.190 783.891,482.229 C 772.487,505.065 756.033,522.931 732.750,537.755 C 706.172,554.678 675.340,564.411 634.500,568.769 C 628.237,569.438 604.979,570.580 601,570.414 C 600.038,570.375 593.446,570.169 586.351,569.958M 600.750,529.822 C 605.289,529.566 615.486,527.117 615.839,526.198 C 616.013,525.746 616.888,525.500 618.319,525.500 C 619.776,525.500 620.625,525.256 620.806,524.785 C 621.114,523.984 623.880,522.867 624.543,523.277 C 625.126,523.638 628,522.106 629.862,520.854 C 630.076,520.521 631.712,519.480 633.500,518.538 C 635.288,517.596 638.125,515.965 639.804,514.913 C 641.484,513.861 643.141,513 643.487,513 C 643.833,513 645.548,511.875 647.298,510.500 C 649.047,509.125 650.646,508 650.850,508 C 651.380,508 657,502.370 657,501.841 C 657,501.598 658.013,500.373 659.250,499.118 C 660.487,497.863 661.500,496.623 661.500,496.365 C 661.500,496.106 662.063,495.224 662.753,494.406 C 664.574,492.241 669.596,481.912 669.685,480.147 C 669.726,479.319 670.054,478.287 670.413,477.854 C 671.770,476.219 673.144,467.531 673.198,460.250 C 673.273,450.142 671.872,444.106 667.107,434.012 C 663.976,427.379 659.245,420.762 653.488,414.959 C 650.449,411.896 641.222,404.447 637.358,401.938 C 633.885,399.683 624.959,395.264 620,393.346 C 611.777,390.165 600.711,387.582 590.574,386.478 C 584.170,385.779 566.821,386.086 561.500,386.990 C 555.396,388.029 546.255,390.474 541.750,392.276 C 529.612,397.127 516.428,405.298 515.573,408.500 C 515.537,408.637 514.129,410.212 512.444,412 C 510.760,413.788 508.058,416.983 506.438,419.100 C 503.524,422.911 497.500,433.171 497.500,434.325 C 497.500,434.654 496.957,435.568 496.295,436.356 C 493.918,439.180 491.498,450.947 491.502,459.661 C 491.505,466.930 493.625,478.132 495.964,483.250 C 498.699,489.230 499.233,490.154 500.077,490.375 C 500.584,490.509 501,490.790 501,491.002 C 501,491.637 506.557,499.149 509.440,502.410 C 519.404,513.683 538.179,524.082 555.250,527.782 C 565.861,530.082 570.176,530.449 584,530.230 C 591.288,530.115 598.825,529.931 600.750,529.822M 736.899,482.721 C 743.715,480.443 748.720,477.015 752.802,471.827 C 758.155,465.023 760.287,458.423 759.853,449.995 C 759.081,434.995 749.054,423.772 734.070,421.134 C 728.764,420.200 722.852,420.846 716.909,423.008 C 712.271,424.695 709.280,426.640 705.091,430.694 C 697.995,437.560 694.956,447.084 696.453,457.750 C 697.750,466.983 704.843,476.616 713.241,480.552 C 715.462,481.593 718.286,482.680 719.515,482.967 C 720.745,483.255 722.650,483.709 723.750,483.976 C 726.787,484.712 732.602,484.158 736.899,482.721M 452.500,471.236 C 459.200,469.682 465.640,466.243 468.171,462.872 C 471.858,457.959 473.402,452.575 473.829,443.146 C 474.286,433.039 472.858,426.918 468.570,420.603 C 464.960,415.287 459.963,411.755 452.118,408.976 C 446.567,407.009 439.050,406.464 434,407.663 C 428.207,409.038 425.112,410.798 420.738,415.207 C 416.141,419.841 414.596,422.457 412.738,428.761 C 411.622,432.550 411.409,434.263 411.375,439.750 C 411.318,448.817 412.969,454.150 417.718,460.246 C 422.239,466.049 427.837,469.611 435,471.245 C 437.062,471.716 438.975,472.188 439.250,472.296 C 440.267,472.693 449.354,471.966 452.500,471.236M 685.557,421.998 C 701.210,419.076 707.540,400.552 698.875,383.024 C 696.838,378.902 692.199,374.143 688.433,372.310 C 679.879,368.147 668.404,371.726 663.064,380.222 C 658.775,387.048 657.469,395.655 659.495,403.750 C 660.968,409.637 662.123,412.007 665.120,415.286 C 670.091,420.725 678.166,423.377 685.557,421.998M 496.500,412.984 C 501.711,412.169 505.498,409.950 510.087,405.023 C 516.453,398.188 520.059,389.305 519.277,382.385 C 517.543,367.060 505.031,357.688 491.325,361.447 C 486.521,362.765 482.895,365.029 479.933,368.557 C 476.773,372.321 475.642,374.351 473.904,379.377 C 472.514,383.399 472.394,384.281 472.406,390.375 C 472.421,397.851 473.039,400.474 475.646,404.135 C 478.684,408.401 483.315,411.584 488.250,412.800 C 491.433,413.584 492.515,413.607 496.500,412.984" stroke="#ECB06A" fill="#ECB06A" stroke-width="1" />
  <path id="35" d="M 654.500,878.659 C 647.303,877.485 641.020,875.718 635.307,873.264 C 630.152,871.049 621.240,863.490 616.966,857.705 C 607.915,845.452 603.007,831.197 601.490,812.751 C 599.960,794.157 604.677,770.820 613.005,755.787 C 618.424,746.006 628.222,734.915 636.655,729.019 C 639.799,726.821 646.884,723.096 650.500,721.740 C 663.342,716.923 677.683,716.876 692.500,721.604 C 711.259,727.588 726.614,742.841 733.168,762 C 736.063,770.462 736.669,775.124 736.708,789.250 C 736.747,803.452 736.423,806.213 733.479,816.792 C 730.241,828.426 725.111,838.515 716.693,849.801 C 705.065,865.393 688.731,875.643 671.419,878.213 C 666.595,878.930 657.606,879.167 654.500,878.659M 673.519,876.716 C 691.892,873.231 708.862,860.580 720.973,841.338 C 728.600,829.221 732.960,817.670 734.734,804.888 C 737.405,785.639 735.202,767.873 728.473,754.385 C 725.482,748.390 722.431,744.022 717.870,739.203 C 705.928,726.588 689.389,719.476 671.750,719.374 C 664.298,719.331 659.615,720.015 653.303,722.070 C 643.513,725.257 635.910,730.068 627.753,738.239 C 614.754,751.258 607.574,766.019 603.673,787.750 C 602.972,791.649 602.772,795.447 602.763,805 C 602.749,818.096 603.027,820.652 605.513,830.351 C 609.519,845.980 617.758,859.427 628.150,867.302 C 634.593,872.184 645.442,876.295 655,877.475 C 659.745,878.061 668.276,877.711 673.519,876.716" stroke="#20140A" fill="#20140A" stroke-width="1" />
  <path id="35" d="M 654.500,896.173 C 646.812,895.441 640.349,893.889 633.231,891.067 C 615.859,884.179 603.131,872.161 594.022,854.044 C 594.022,854.044 591.938,849.900 591.938,849.900 C 591.938,849.900 590.111,850.243 590.111,850.243 C 586.601,850.902 554.899,850.538 548.403,849.765 C 531.197,847.717 523.098,846.131 512.135,842.662 C 507.674,841.250 506.885,841.395 506.298,843.738 C 505.983,844.990 505.353,846.074 501.264,852.403 C 497.343,858.471 489.523,866.240 482.561,870.984 C 474.946,876.173 463.603,881.001 455,882.716 C 426.210,888.452 398.649,879.976 376.327,858.521 C 362.358,845.095 351.550,826.760 345.300,805.885 C 338.924,784.588 338.078,759.486 343.070,739.750 C 346.512,726.144 351.909,715.573 360.075,706.446 C 360.075,706.446 363.478,702.641 363.478,702.641 C 363.478,702.641 362.699,698.446 362.699,698.446 C 361.608,692.579 361.219,678.197 361.970,671.594 C 362.788,664.410 364.670,656.019 367.091,648.750 C 369.144,642.588 376.187,627.721 379.269,623.042 C 380.221,621.596 381,620.242 383,617.370 C 383,617.108 383.507,616.259 384.125,615.481 C 384.743,614.705 385.812,613.243 386.500,612.234 C 387.188,611.225 388.762,609.212 390,607.760 C 391.238,606.308 393.478,603.574 394.981,601.685 C 400.765,594.409 418.267,577.309 429.500,567.961 C 433.447,564.676 444.971,555.980 445.800,555.662 C 446.204,555.507 446.500,555.702 446.500,556.125 C 446.500,556.529 445.274,557.673 443.774,558.668 C 435.385,564.239 419.896,577.531 408.750,588.726 C 389.885,607.673 377.392,625.759 370.077,644.710 C 363.815,660.933 361.349,677.989 363.241,692 C 364.897,704.258 365.002,703.062 361.974,706.363 C 350.099,719.309 343.209,736.659 341.464,758 C 339.433,782.833 345.411,810.534 357.382,831.750 C 368.824,852.030 386.466,868.561 405,876.365 C 422.827,883.872 439.334,885.331 457.303,880.987 C 477.201,876.177 495.373,862.218 505.019,844.333 C 507.375,839.965 507.429,839.944 512.500,841.512 C 535.479,848.614 560.626,851.143 588.585,849.163 C 588.585,849.163 592.918,848.856 592.918,848.856 C 592.918,848.856 595.521,854.043 595.521,854.043 C 605.204,873.337 619.596,885.773 639.250,891.828 C 646.587,894.089 651.645,894.994 658.750,895.317 C 686.024,896.559 712.754,882.766 731.424,857.817 C 734.645,853.513 735.190,853.018 737.571,852.226 C 746.507,849.259 757.743,840.727 765.458,831.053 C 775.128,818.928 781.314,805.601 784.604,789.813 C 786.035,782.942 786.187,781.345 786.259,772.356 C 786.302,766.915 786.543,762.287 786.793,762.072 C 787.044,761.858 788.466,761.386 789.952,761.025 C 795.058,759.783 801.913,756.387 807.500,752.331 C 816.520,745.783 824.523,734.038 828.199,721.951 C 830.966,712.856 831.252,710.583 831.218,698 C 831.189,687.215 831.077,685.725 829.837,679.856 C 826.801,665.478 820.236,649.780 811.078,635 C 800.927,618.616 789.701,605.192 769.681,585.496 C 759.830,575.804 754.678,571.093 745.290,563.191 C 741.067,559.635 739.323,557.681 739.640,556.856 C 739.789,556.468 742.799,554.244 746.331,551.913 C 780.577,529.309 803.560,496.894 813.213,457.581 C 814.828,451.002 816.071,443.423 817.571,431 C 818.566,422.767 818.429,396.997 817.341,387.500 C 815.457,371.055 811.981,354.031 807.716,340.349 C 807.047,338.204 806.500,336.019 806.500,335.493 C 806.500,334.783 807.769,333.906 811.441,332.078 C 826.570,324.545 837.996,313.135 845.727,297.841 C 856.669,276.193 858.380,250.315 850.427,226.750 C 845.573,212.368 837.969,200.447 826.622,189.432 C 799.287,162.895 756.750,155.802 723.898,172.302 C 710.466,179.048 701.666,186.548 691.822,199.643 C 686.861,206.244 687.667,205.929 682,203.489 C 657.280,192.847 628.854,186.592 597.732,184.946 C 566.633,183.301 531.769,188.405 508.469,198.013 C 502.995,200.270 502.654,200.179 499.498,195.625 C 480.957,168.864 455.342,155.040 424.250,155.012 C 410.638,155 399.208,157.660 386.750,163.738 C 371.832,171.018 360.011,181.296 350.804,194.993 C 341,209.577 335.481,228.613 335.510,247.737 C 335.545,271.060 343.685,291.636 358.872,306.796 C 364.909,312.822 370.001,316.651 376.509,320.053 C 379.267,321.496 381.767,322.969 382.063,323.326 C 382.454,323.796 382.392,324.565 381.837,326.113 C 381.416,327.288 379.838,331.625 378.331,335.750 C 367.632,365.031 362.673,400.535 365.235,429.500 C 366.057,438.802 366.656,443.351 367.788,448.914 C 373.603,477.474 386.498,502.442 406.287,523.458 C 416.118,533.899 429.650,544.823 441.875,552.189 C 444.535,553.792 445.760,555 444.725,555 C 443.291,555 429.786,545.908 422.075,539.750 C 416.860,535.585 407.932,527.351 404.901,523.909 C 395.091,512.773 394.799,512.402 388.753,503.436 C 384.786,497.553 384.990,497.909 380.758,489.500 C 377.494,483.014 375.500,478.757 375.500,478.275 C 375.500,478.121 374.938,476.829 374.250,475.404 C 373.562,473.979 373,472.450 373,472.007 C 373,471.563 372.815,470.986 372.590,470.725 C 371.894,469.918 369.010,459.902 367.487,453 C 364.539,439.643 363.470,429.051 363.462,413.132 C 363.455,397.548 364.713,384.019 367.334,371.500 C 367.765,369.438 368.320,366.738 368.565,365.500 C 370.750,354.514 376.392,336.166 380.467,326.793 C 381.055,325.441 381.358,324.169 381.142,323.966 C 380.926,323.763 378.781,322.582 376.373,321.341 C 366.080,316.036 358.418,309.464 350.127,298.832 C 349.235,297.687 348.300,296.300 348.052,295.750 C 347.803,295.200 347.048,293.945 346.375,292.962 C 342.773,287.710 337.974,275.340 336.302,267 C 334.676,258.891 334.500,257.003 334.500,247.663 C 334.500,236.931 335.171,231.162 337.499,221.870 C 341.178,207.189 348.548,193.926 359.762,181.808 C 363.998,177.230 365.783,175.661 372.250,170.825 C 389.098,158.227 411.077,151.999 431.750,153.963 C 444.536,155.178 455.399,158.186 465.750,163.379 C 478.830,169.940 493.454,183.308 499.926,194.620 C 502.109,198.436 502.682,198.851 504.665,198.047 C 509.086,196.255 523.870,191.406 528.349,190.279 C 535.591,188.457 546.957,186.245 554,185.290 C 566.736,183.560 590.914,182.947 604.303,184.013 C 617.975,185.102 637.220,188.054 645.475,190.329 C 647.001,190.750 649.487,191.382 651,191.734 C 659.878,193.802 676.063,199.346 682.968,202.685 C 686.502,204.394 687.296,204.348 688.307,202.375 C 688.764,201.481 689.726,200.037 690.444,199.166 C 691.163,198.295 692.538,196.500 693.500,195.177 C 698.754,187.954 708.157,179.715 717.500,174.150 C 735.731,163.290 758.899,159.889 783,164.535 C 788.795,165.651 798.430,169.192 805.500,172.804 C 812.218,176.235 814.572,177.735 821.250,182.839 C 824.879,185.613 832.288,192.825 834.684,195.916 C 835.821,197.381 837.492,199.519 838.399,200.666 C 841.864,205.048 844.043,208.674 847.465,215.750 C 853.458,228.144 856.453,241.307 856.484,255.394 C 856.505,264.853 855.827,270.719 853.681,279.631 C 850.028,294.800 843.644,306.846 833.519,317.677 C 827.910,323.677 815.184,332.495 809.670,334.204 C 807.571,334.854 807.342,335.700 808.418,338.846 C 811.754,348.605 815.315,364.103 816.956,376 C 817.240,378.062 817.588,380.538 817.729,381.500 C 819.413,393.045 820.056,417.502 818.971,428.750 C 816.567,453.649 811.490,472.582 802.209,491.250 C 796.733,502.264 791.245,510.967 784.996,518.545 C 775,530.668 768.760,536.725 756.332,546.365 C 753.683,548.418 744.721,554.481 742.750,555.552 C 739.958,557.068 740.141,557.341 748.947,564.750 C 758.388,572.694 762.640,576.643 773.750,587.773 C 785.163,599.207 791.494,606.022 796.500,612.264 C 799.982,616.604 802.152,619.347 803.303,620.863 C 805.029,623.136 813,635.026 813,635.327 C 813,635.480 813.706,636.650 814.569,637.928 C 816.143,640.256 822.334,652.437 823.375,655.250 C 823.679,656.075 824.843,659.107 825.961,661.987 C 828.831,669.390 830.332,675.152 831.746,684.185 C 832.644,689.922 832.813,706.723 832.015,710.843 C 831.732,712.304 831.250,714.794 830.944,716.375 C 829.635,723.140 825.442,733.362 821.765,738.750 C 817.903,744.409 811.904,750.798 807.085,754.390 C 804.231,756.517 797.269,759.938 793,761.312 C 790.663,762.063 788.495,762.870 788.183,763.102 C 787.809,763.382 787.535,766.880 787.378,773.388 C 787.052,786.839 785.279,795.702 780.452,808 C 776.957,816.908 772.712,824.072 765.976,832.439 C 758.640,841.549 751.894,846.864 741.116,852.021 C 738.842,853.110 736.784,854 736.543,854 C 735.997,854 733.913,856.448 731.113,860.378 C 726.346,867.067 714.456,878.106 707,882.764 C 705.763,883.537 703.931,884.707 702.931,885.365 C 699.796,887.423 689.298,891.874 683.912,893.429 C 675.462,895.869 663.256,897.007 654.500,896.173" stroke="#20140A" fill="#20140A" stroke-width="1" />
  <path id="56" d="M 655,877.475 C 645.148,876.259 632.753,871.451 628,867.002 C 626.563,865.657 626.240,865.186 627.107,865.698 C 627.854,866.139 628.713,866.500 629.018,866.500 C 629.322,866.500 630.531,867.162 631.706,867.970 C 640.779,874.212 658.109,877.911 669.283,875.990 C 684.680,873.343 696.875,866.775 708.332,854.961 C 714.694,848.399 719.096,842.148 724.187,832.443 C 729.360,822.581 731.076,817.424 733.259,805.186 C 734.483,798.321 734.569,796.944 734.375,787.250 C 734.157,776.318 733.852,774.220 731.154,765.045 C 728.287,755.293 722.385,745.488 715.141,738.441 C 706.461,729.997 697.076,725.035 683.854,721.902 C 680.140,721.022 677.703,720.808 671.250,720.798 C 666.850,720.792 661.822,720.961 660.077,721.173 C 658.170,721.406 657.017,721.377 657.188,721.101 C 657.722,720.236 665.248,719.346 671.750,719.379 C 696.037,719.502 717.757,732.907 728.473,754.385 C 735.202,767.873 737.405,785.639 734.734,804.888 C 732.960,817.670 728.600,829.221 720.973,841.338 C 710.687,857.682 697.360,868.966 681.907,874.417 C 673.851,877.259 663.125,878.478 655,877.475" stroke="#FFD49F" fill="#FFD49F" stroke-width="1" />
  <path id="7" d="M 650.750,875.274 C 647.725,874.635 644.125,873.727 642.750,873.256 C 635.069,870.626 627.023,865.266 621.956,859.404 C 614.005,850.207 607.557,836.226 605.299,823.291 C 603.753,814.431 603.292,805.525 603.971,797.633 C 604.321,793.572 604.807,789.462 605.051,788.500 C 605.294,787.538 605.495,786.055 605.497,785.206 C 605.501,782.886 609.088,770.366 611.215,765.250 C 615.260,755.516 620.383,747.716 627.454,740.524 C 636.896,730.922 647.881,724.569 660.081,721.656 C 665.617,720.333 677.737,720.461 683.854,721.905 C 697.052,725.023 706.458,729.995 715.141,738.441 C 722.385,745.488 728.287,755.293 731.154,765.045 C 733.852,774.220 734.157,776.318 734.375,787.250 C 734.569,796.944 734.483,798.321 733.259,805.186 C 731.076,817.424 729.360,822.581 724.187,832.443 C 719.096,842.148 714.694,848.399 708.332,854.961 C 691.674,872.139 670.793,879.505 650.750,875.274M 669.114,859.292 C 683.470,856.544 697.239,845.271 704.496,830.321 C 711.798,815.279 713.028,796.919 707.783,781.244 C 705.570,774.632 703.808,771.174 700.133,766.230 C 692.057,755.365 680.090,748.500 669.226,748.500 C 654.133,748.500 638.805,759.407 630.110,776.334 C 618.910,798.138 618.965,826.485 630.238,843.026 C 639.181,856.146 653.732,862.235 669.114,859.292" stroke="#ECB06A" fill="#ECB06A" stroke-width="1" />
  <path id="35" d="M 794.628,308.365 C 791.905,302.790 788.850,296.935 787.838,295.354 C 786.827,293.774 786,292.365 786,292.223 C 786,292.081 783.802,288.654 781.115,284.608 C 769.285,266.788 757.447,253.616 740.500,239.413 C 734.169,234.108 723.749,226.738 712.750,219.786 C 711.100,218.744 708.288,216.958 706.500,215.820 C 704.712,214.681 703.178,213.359 703.090,212.882 C 702.817,211.402 709.600,203.073 714.951,198.319 C 723.528,190.697 735.881,184.303 746.796,181.835 C 752.663,180.508 761.860,179.940 768.308,180.505 C 787.907,182.223 803.650,189.576 817.501,203.479 C 827.624,213.639 833.944,225.161 837.071,239.153 C 838.676,246.334 838.917,260.790 837.568,269 C 835.061,284.275 829.058,296.500 819.273,306.262 C 813.455,312.066 803.639,318.500 800.602,318.500 C 799.767,318.500 798.667,316.634 794.628,308.365M 803.145,316.438 C 807.586,314.195 813.618,309.898 817.413,306.272 C 838.082,286.526 843.615,250.420 830.138,223.250 C 822.966,208.792 810.073,196.079 795.366,188.964 C 789.341,186.049 780.063,183.189 773.500,182.223 C 766.647,181.214 753.378,181.480 747.750,182.738 C 735.845,185.399 723.010,192.203 714.325,200.459 C 710.338,204.249 703.862,212.374 704.285,213.057 C 704.408,213.256 705.915,214.206 707.635,215.167 C 714.251,218.867 732.084,231.100 739.250,236.853 C 758.176,252.050 774.234,270.266 786.849,290.849 C 790.394,296.633 796.974,309.252 799.117,314.375 C 799.837,316.094 800.563,317.500 800.732,317.500 C 800.902,317.500 801.987,317.022 803.145,316.438" stroke="#20140A" fill="#20140A" stroke-width="1" />
  <path id="55" d="M 627.729,865.966 C 627.548,865.672 627.096,865.548 626.726,865.690 C 625.848,866.027 619.509,859.279 616.182,854.466 C 610.115,845.688 605.765,834.288 603.413,821 C 602.372,815.114 602.535,794.081 603.673,787.750 C 607.515,766.348 614.688,751.431 627.250,738.718 C 637.518,728.327 649.286,721.737 658.389,721.282 C 658.389,721.282 662.250,721.089 662.250,721.089 C 662.250,721.089 658,722.231 658,722.231 C 649.971,724.389 644.750,726.883 637.250,732.141 C 622.724,742.327 612.842,757.090 607.422,776.706 C 606.365,780.532 605.499,784.357 605.497,785.206 C 605.495,786.055 605.294,787.538 605.051,788.500 C 604.807,789.462 604.321,793.572 603.971,797.633 C 603.292,805.525 603.753,814.431 605.299,823.291 C 608.092,839.293 617.144,856.340 627.185,864.508 C 628.551,865.618 629.286,866.500 628.847,866.500 C 628.413,866.500 627.910,866.260 627.729,865.966" stroke="#F7D58B" fill="#F7D58B" stroke-width="1" />
  <path id="55" d="M 799.117,314.375 C 796.974,309.252 790.394,296.633 786.849,290.849 C 774.234,270.266 758.176,252.050 739.250,236.853 C 732.084,231.100 714.251,218.867 707.635,215.167 C 705.915,214.206 704.408,213.256 704.285,213.057 C 703.862,212.374 710.338,204.249 714.325,200.459 C 723.010,192.203 735.845,185.399 747.750,182.738 C 753.378,181.480 766.647,181.214 773.500,182.223 C 794.510,185.315 813.557,197.507 825.879,215.750 C 839.476,235.881 841.280,265.498 830.293,288.250 C 825.337,298.514 817.967,307.125 809.356,312.712 C 805.439,315.252 801.391,317.500 800.732,317.500 C 800.563,317.500 799.837,316.094 799.117,314.375M 807.178,312.266 C 819.326,304.210 828.143,292.478 832.524,278.539 C 835.139,270.215 836.143,262.517 835.851,253 C 835.351,236.665 831.059,224.707 820.961,211.500 C 812.883,200.936 799.184,191.233 786.038,186.762 C 774.780,182.935 763.620,181.826 752.704,183.451 C 744.602,184.656 742.412,185.339 734.500,189.124 C 725.259,193.544 718.630,198.212 711.875,205.056 C 708.644,208.330 706,211.212 706,211.459 C 706,212.229 727.491,226.929 731.113,228.636 C 732.413,229.249 733.481,230.001 733.488,230.309 C 733.495,230.615 734.344,231.428 735.375,232.113 C 739.260,234.692 748.501,242.606 755.456,249.306 C 761.932,255.547 769.755,264.399 776.840,273.500 C 780.796,278.582 788.150,289.796 790.777,294.750 C 796.430,305.413 799.439,311.406 800.259,313.625 C 800.741,314.931 801.229,316 801.341,316 C 801.455,316 804.081,314.320 807.178,312.266" stroke="#F7D58B" fill="#F7D58B" stroke-width="1" />
  <path id="35" d="M 385,306.170 C 372.033,299.952 361.098,286.833 355.892,271.250 C 351.456,257.972 350.772,242.042 354.065,228.750 C 356.522,218.833 359.366,212.238 364.733,204.017 C 381.363,178.537 411.640,166.656 441.829,173.762 C 453.704,176.557 465.675,183.303 474.723,192.298 C 479.908,197.453 486,205.004 486,206.274 C 486,207.597 485.625,207.929 481.750,210.034 C 457.255,223.337 432.139,245.268 412.150,270.808 C 405.613,279.161 398.551,290.187 393.055,300.625 C 390.581,305.321 389.167,307.498 388.592,307.494 C 388.129,307.490 386.512,306.895 385,306.170M 392.250,299.370 C 406.817,271.877 429.887,245.178 456.747,224.731 C 463.149,219.857 475.197,212.016 480.465,209.295 C 482.935,208.019 485.063,206.802 485.194,206.590 C 485.560,205.999 477.156,196.211 472.644,191.971 C 463.103,183.007 450.695,176.544 438.465,174.167 C 431.765,172.864 416.478,172.870 410.526,174.178 C 401.091,176.251 393.255,179.555 385.528,184.719 C 367.082,197.046 356.015,216.333 353.447,240.636 C 351.137,262.478 360.520,286.548 376.164,298.916 C 379.725,301.731 386.873,306.005 387.990,305.988 C 388.450,305.981 390.131,303.370 392.250,299.370" stroke="#20140A" fill="#20140A" stroke-width="1" />
  <path id="55" d="M 383.240,303.678 C 365.432,293.312 354.793,274.502 353.224,250.610 C 352.284,236.280 357.121,217.964 365.156,205.427 C 375.377,189.477 391.530,178.352 410.526,174.178 C 416.478,172.870 431.765,172.864 438.465,174.167 C 450.695,176.544 463.103,183.007 472.644,191.971 C 477.156,196.211 485.560,205.999 485.194,206.590 C 485.063,206.802 482.935,208.019 480.465,209.295 C 475.197,212.016 463.149,219.857 456.747,224.731 C 429.887,245.178 406.817,271.877 392.250,299.370 C 390.131,303.370 388.450,305.981 387.990,305.988 C 387.572,305.995 385.434,304.955 383.240,303.678M 390.969,298.625 C 392.606,295.394 394.406,292.075 394.969,291.250 C 396.212,289.430 396.272,288.130 398,286.985 C 398,286.185 404.668,276.358 409.356,270.250 C 418.072,258.893 438.477,237.391 446.606,230.996 C 448.178,229.761 451.380,227.215 453.723,225.340 C 456.066,223.464 458.214,222.073 458.495,222.248 C 458.777,222.422 459.185,222.088 459.401,221.505 C 459.616,220.923 460.270,220.177 460.854,219.848 C 461.438,219.519 464.991,217.172 468.750,214.631 C 472.509,212.091 477.252,209.189 479.292,208.180 C 481.332,207.173 482.998,206.101 482.996,205.799 C 482.988,204.666 471.988,193.080 467.705,189.692 C 458.992,182.801 454.086,180.212 444.237,177.309 C 436.090,174.907 432.518,174.398 423.750,174.387 C 412.951,174.375 406.014,175.924 396.029,180.577 C 390.141,183.321 386.478,185.606 381.199,189.826 C 372.678,196.637 366.995,203.875 361.924,214.369 C 358.837,220.758 357.711,223.976 356.457,230 C 350.151,260.303 361.123,289.242 383.986,302.602 C 385.772,303.646 387.404,304.500 387.613,304.500 C 387.822,304.500 389.332,301.856 390.969,298.625" stroke="#F7D58B" fill="#F7D58B" stroke-width="1" />
  <path id="5" d="M 653.750,859.259 C 641.336,856.521 631.282,847.807 626.242,835.415 C 620.256,820.694 620.164,803.338 625.982,785.973 C 633.362,763.945 651.186,748.500 669.226,748.500 C 680.090,748.500 692.057,755.365 700.133,766.230 C 703.808,771.174 705.570,774.632 707.783,781.244 C 713.028,796.919 711.798,815.279 704.496,830.321 C 697.239,845.271 683.470,856.544 669.114,859.292 C 664.577,860.159 657.769,860.145 653.750,859.259" stroke="#D18D47" fill="#D18D47" stroke-width="1" />
  <path id="7" d="M 429.758,863.955 C 414.904,861.931 401.957,855.588 391.312,845.122 C 382.913,836.865 376.938,828.847 372.316,819.631 C 365.513,806.067 361.621,792.175 359.959,775.524 C 359.068,766.595 360.429,750.922 362.760,743.270 C 363.521,740.772 365.751,734.992 366.516,733.535 C 367.641,731.393 369,728.112 369,727.539 C 369,727.184 369.562,726.452 370.250,725.910 C 370.938,725.370 371.500,724.629 371.500,724.264 C 371.500,723.900 373.714,721.497 376.419,718.924 C 382.058,713.562 390.437,708.415 397.250,706.128 C 400.954,704.884 401.877,704.784 409.750,704.768 C 417.057,704.753 418.875,704.913 422.702,705.908 C 428.055,707.299 435.389,710.160 438.555,712.093 C 439.824,712.867 441.002,713.500 441.175,713.500 C 441.812,713.500 448.868,718.240 452.750,721.275 C 456.820,724.458 464.021,731.528 468.255,736.500 C 473.686,742.876 480.315,753.876 484.374,763.250 C 491.596,779.926 495.679,801.251 494.043,813.750 C 493.245,819.839 491.204,827.472 489.182,831.923 C 482.502,846.628 468.061,858.258 451,862.672 C 445.481,864.100 435.324,864.713 429.758,863.955M 442.266,846.496 C 455.209,843.186 464.629,833.612 468.582,819.750 C 470.113,814.386 470.245,801.545 468.837,795.012 C 465.667,780.299 458.150,765.386 449.149,755.953 C 441.880,748.336 433.740,742.838 426.250,740.487 C 421.362,738.953 411.540,738.551 407,739.699 C 396.916,742.250 388.249,749.346 383.741,758.745 C 379.770,767.024 378.031,777.076 378.968,786.327 C 381.625,812.558 395.700,834.934 415,843.612 C 423.481,847.426 434.199,848.559 442.266,846.496" stroke="#ECB06A" fill="#ECB06A" stroke-width="1" />
  <path id="7" d="M 800.244,313.625 C 799.168,310.760 795.658,303.659 793.553,300.091 C 792.522,298.341 792.245,297.500 792.699,297.500 C 793.070,297.500 794.948,295.841 796.875,293.813 C 809.504,280.518 813.679,263.976 808.488,247.801 C 805.715,239.159 801.432,232.325 795.184,226.567 C 785.163,217.334 775.550,213.268 763.750,213.273 C 756.557,213.276 753.150,214.068 746.686,217.242 C 743.227,218.940 741.218,220.363 738.386,223.117 C 736.332,225.115 734.200,227.404 733.649,228.203 C 733.649,228.203 732.648,229.656 732.648,229.656 C 732.648,229.656 730.577,228.453 730.577,228.453 C 724.999,225.212 706,212.075 706,211.459 C 706,211.212 708.644,208.330 711.875,205.056 C 718.630,198.212 725.259,193.544 734.500,189.124 C 742.412,185.339 744.602,184.656 752.704,183.451 C 763.620,181.826 774.780,182.935 786.038,186.762 C 799.184,191.233 812.883,200.936 820.961,211.500 C 831.059,224.707 835.351,236.665 835.851,253 C 836.061,259.854 835.928,262.307 835.067,267.500 C 831.795,287.204 822.520,302.091 807.178,312.266 C 804.081,314.320 801.455,316 801.341,316 C 801.229,316 800.735,314.931 800.244,313.625" stroke="#ECB06A" fill="#ECB06A" stroke-width="1" />
  <path id="56" d="M 567.250,528.756 C 558.859,527.558 546.203,524.577 544.731,523.450 C 544.111,522.976 540.375,522.014 538.210,521.770 C 534.603,521.364 522.712,514.365 515.940,508.662 C 510.375,503.975 504.344,496.987 504.813,495.767 C 504.947,495.418 504.394,494.147 503.587,492.942 C 502.779,491.736 501.360,489.264 500.433,487.449 C 499.507,485.634 498.526,484.058 498.252,483.949 C 497.979,483.839 497.724,483.132 497.687,482.378 C 497.649,481.624 497.255,480.243 496.812,479.310 C 495.926,477.442 493.500,465.889 493.500,463.538 C 493.500,462.724 493.275,461.920 493,461.750 C 492.353,461.350 492.349,458.152 492.995,457.753 C 493.281,457.577 493.451,455.236 493.398,452.224 C 493.320,447.773 493.435,446.908 494.175,446.366 C 494.771,445.932 495.100,444.866 495.219,442.990 C 495.437,439.582 495.959,437.500 496.596,437.500 C 496.864,437.500 496.985,437.219 496.865,436.875 C 496.372,435.469 501.818,425.175 505.925,419.750 C 509.969,414.407 514.587,409.500 515.569,409.500 C 516.090,409.500 518.183,408.206 520.222,406.625 C 522.260,405.044 524.563,403.303 525.339,402.755 C 527.806,401.016 537.085,396.373 541.871,394.484 C 544.413,393.481 546.359,392.526 546.195,392.361 C 545.878,392.044 552.592,389.942 556.750,389.057 C 563.192,387.687 582.997,386.362 583.003,387.301 C 583.004,387.548 585.423,387.789 588.378,387.838 C 593.161,387.916 600.473,388.972 607,390.526 C 608.237,390.820 609.869,391.185 612.142,393.087 C 613.092,393.433 613.731,393.430 614.159,393.076 C 617.818,392.806 613.181,394.046 615.250,393.988 C 615.800,394.217 616.812,394.296 617.500,394.162 C 617.586,394.476 622.231,395.454 621.341,396.231 C 622.217,396.613 623.373,396.809 623.910,396.668 C 626.688,396.559 624.096,398.045 625.603,398.212 C 626.347,398.600 627.390,398.805 628.904,399.531 C 628.077,399.572 630.490,400.675 631.500,400.718 C 631.913,400.736 632.331,400.975 632.429,401.250 C 632.529,401.525 633.955,402.601 635.599,403.640 C 637.244,404.680 640.808,407.212 643.520,409.265 C 646.232,411.320 648.538,413 648.643,413 C 648.861,413 655.500,419.592 655.500,419.810 C 655.500,419.888 657.077,422.130 659.004,424.791 C 660.931,427.451 663.508,431.625 664.730,434.067 C 667.103,438.808 670.500,448.641 670.500,450.771 C 670.500,451.479 670.702,451.935 670.947,451.783 C 671.778,451.269 672,453.055 671.898,459.416 C 671.898,459.416 671.796,465.750 671.796,465.750 C 671.796,465.750 671.467,459.500 671.467,459.500 C 671.160,453.652 671.145,453.813 671.232,462 C 671.285,467.014 671.157,470.110 670.931,469.250 C 670.601,467.993 670.566,468.095 670.721,469.875 C 670.827,471.098 670.689,472 670.073,474.296 C 669.462,473.918 668.906,476.173 669.336,477.293 C 669.535,477.813 669.471,478.041 669.176,477.858 C 668.589,477.495 667.299,480.772 667.014,483 C 667.005,482.587 666.081,484.031 664.960,486.209 C 659.736,496.351 652.965,504.190 643.518,511.029 C 636.725,515.947 622.041,523 614.617,524.910 C 611.467,525.721 609.822,526.350 610.359,526.538 C 611.568,526.962 606.894,527.958 604,527.892 C 602.763,527.864 599.837,528.113 597.500,528.445 C 590.701,529.412 573.106,529.592 567.250,528.756M 612.716,493.022 C 615.529,492.114 616.688,491.394 618.863,489.202 C 622.204,485.834 623.250,485.604 623.250,488.239 C 623.250,490.633 624.736,490.454 627.328,487.748 C 628.562,486.461 629.460,485.115 629.322,484.757 C 629.184,484.399 629.596,483.615 630.235,483.014 C 630.875,482.413 631.534,481.264 631.699,480.461 C 631.865,479.658 632.139,478.316 632.309,477.480 C 632.541,476.344 632.447,475.997 631.934,476.105 C 631.389,476.221 631.283,475.422 631.413,472.173 C 631.666,465.827 629.914,463.498 624.893,463.502 C 621.356,463.505 619.391,464.760 617.697,468.104 C 615.662,472.120 610.409,477.094 606.750,478.469 C 600.034,480.991 591.902,477.668 588.506,471.012 C 587.588,469.212 587.429,467.962 587.346,461.854 C 587.346,461.854 587.250,454.781 587.250,454.781 C 587.250,454.781 589.750,453.642 589.750,453.642 C 594.329,451.558 595.749,450.753 595.498,450.382 C 595.148,449.864 600.185,446.634 602.219,446.072 C 603.689,445.666 603.944,445.732 604.164,446.572 C 604.370,447.358 604.683,447.474 605.833,447.187 C 607.856,446.682 611.341,443.615 612.263,441.529 C 612.695,440.550 613.271,439.345 613.544,438.850 C 613.817,438.355 614.240,436.892 614.486,435.600 C 614.976,433.017 614.183,431 612.680,431 C 612.070,431 611.955,430.678 612.188,429.625 C 613.048,425.753 613.082,423.536 612.319,420.915 C 611.388,417.709 608.465,414.108 605.282,412.243 C 597.928,407.933 582.275,406.291 569.688,408.511 C 558.473,410.488 554.102,413.316 551.336,420.385 C 549.602,424.815 550.498,433.630 553.216,438.884 C 556.030,444.323 563.782,451.250 568.839,452.844 C 570.909,453.497 571.731,454.036 572.101,454.983 C 572.780,456.726 572.346,466.942 571.526,468.500 C 568.225,474.772 561.678,478.418 556.194,477.039 C 552.845,476.197 549.233,474.149 547.813,472.288 C 547.163,471.436 545.934,469.249 545.083,467.429 C 542.967,462.902 541.218,461.500 537.687,461.500 C 532.302,461.500 530.536,463.529 530.771,469.445 C 530.977,474.639 533.350,479.368 538.191,484.236 C 544.043,490.120 550.048,492.469 559.288,492.488 C 564.442,492.498 565.868,492.316 569.038,491.241 C 573.794,489.629 576.980,488.151 578.282,486.952 C 579.302,486.012 579.331,486.019 580.766,487.517 C 583.365,490.228 587.766,492.396 593.500,493.786 C 597.838,494.838 608.390,494.418 612.716,493.022" stroke="#FFD49F" fill="#FFD49F" stroke-width="1" />
  <path id="5" d="M 790.308,293.866 C 788,289.565 780.399,278.072 776.840,273.500 C 764.104,257.137 750.923,243.827 737.187,233.459 C 735.297,232.032 733.591,230.452 733.398,229.949 C 732.536,227.712 740.674,220.062 747.250,216.928 C 753.284,214.052 756.788,213.276 763.750,213.273 C 775.550,213.268 785.163,217.334 795.184,226.567 C 801.432,232.325 805.715,239.159 808.488,247.801 C 813.679,263.976 809.504,280.518 796.875,293.813 C 794.948,295.841 793.120,297.496 792.812,297.491 C 792.503,297.487 791.376,295.856 790.308,293.866" stroke="#D18D47" fill="#D18D47" stroke-width="1" />
  <path id="5" d="M 422.750,846.248 C 409.827,842.875 399.240,834.738 390.880,821.750 C 382.373,808.537 377.459,789.717 378.946,776.053 C 380.671,760.202 388.251,747.955 399.750,742.439 C 405.951,739.466 409.157,738.832 416.500,739.133 C 423.695,739.428 427.644,740.460 433.461,743.568 C 450.312,752.572 463.974,772.439 468.837,795.012 C 470.245,801.545 470.113,814.386 468.582,819.750 C 464.629,833.612 455.209,843.186 442.266,846.496 C 436.688,847.923 428.781,847.822 422.750,846.248" stroke="#D18D47" fill="#D18D47" stroke-width="1" />
  <path id="20" d="M 723.750,483.976 C 722.650,483.709 720.745,483.255 719.515,482.967 C 711.146,481.011 703.399,474.646 699.294,466.353 C 693.316,454.276 695.667,439.815 705.091,430.694 C 709.280,426.640 712.271,424.695 716.909,423.008 C 722.852,420.846 728.764,420.200 734.070,421.134 C 745.863,423.210 754.054,430.055 758.325,441.401 C 760.062,446.014 760.480,453.810 759.256,458.750 C 756.984,467.929 751.316,475.389 743,480.147 C 737.479,483.306 728.418,485.108 723.750,483.976" stroke="#F79A65" fill="#F79A65" stroke-width="1" />
  <path id="37" d="M 558.750,830.499 C 546.170,829.933 533.933,828.082 521.500,824.866 C 521.500,824.866 515.250,823.250 515.250,823.250 C 515.250,823.250 515.500,818.250 515.500,818.250 C 516.173,804.787 515.458,792.713 513.532,785 C 513.016,782.938 512.681,781.162 512.786,781.053 C 513.080,780.750 520.134,784.004 520.726,784.715 C 521.871,786.088 537.954,791.432 541.941,791.763 C 543.420,791.886 544.964,792.263 545.370,792.600 C 545.776,792.937 547.415,793.260 549.013,793.317 C 550.737,793.380 552.441,793.766 553.206,794.268 C 554.125,794.870 555.003,795.018 556.256,794.782 C 557.225,794.601 558.294,794.624 558.634,794.834 C 558.972,795.044 561.034,795.286 563.214,795.371 C 565.394,795.456 567.447,795.748 567.775,796.020 C 568.138,796.322 570.058,796.386 572.672,796.185 C 575.322,795.981 577.217,796.048 577.611,796.358 C 578.524,797.077 581.928,797.522 582.270,796.967 C 585.650,798.117 582.759,798.117 582.964,797.272 C 582.235,797.723 582.422,812.127 583.260,820.061 C 584.456,831.388 584.601,830.173 582,830.577 C 579.297,830.996 569.032,830.962 558.750,830.499" stroke="#ECAF69" fill="#ECAF69" stroke-width="1" />
  <path id="56" d="M 677,421.954 C 673.077,421.194 667.826,418.246 665.120,415.286 C 662.123,412.007 660.968,409.637 659.495,403.750 C 657.469,395.655 658.775,387.048 663.064,380.222 C 667.153,373.716 675.122,369.856 682.825,370.651 C 694.826,371.890 704.289,387.250 702.539,402.650 C 701.011,416.092 689.938,424.462 677,421.954M 689.625,419.127 C 693.568,417.276 695.723,415.457 697.751,412.267 C 700.371,408.147 701.232,404.916 701.220,399.250 C 701.196,387.949 696.255,378.218 688.369,373.941 C 685.476,372.372 684.924,372.251 680.750,372.260 C 676.698,372.269 675.889,372.439 672.624,373.960 C 664.716,377.644 660.027,386.122 660.008,396.770 C 659.981,411.327 669.537,421.479 682.625,420.796 C 685.576,420.642 687.245,420.245 689.625,419.127" stroke="#FFD49F" fill="#FFD49F" stroke-width="1" />
  <path id="56" d="M 488.250,412.800 C 483.315,411.584 478.684,408.401 475.646,404.135 C 473.039,400.474 472.421,397.851 472.406,390.375 C 472.394,384.281 472.514,383.399 473.904,379.377 C 475.642,374.351 476.773,372.321 479.933,368.557 C 482.895,365.029 486.521,362.765 491.325,361.447 C 498.043,359.604 504.486,360.815 509.986,364.951 C 517.121,370.318 520.756,380.283 518.779,389.053 C 517.439,395 514.651,400.123 510.087,405.023 C 505.498,409.950 501.711,412.169 496.500,412.984 C 492.515,413.607 491.433,413.584 488.250,412.800M 500.087,410.541 C 507.317,407.777 513.971,400.229 516.653,391.750 C 520.236,380.418 515.375,368.668 505.111,363.860 C 502.109,362.454 501.269,362.286 497.250,362.299 C 493.786,362.310 492.089,362.572 489.880,363.440 C 479.576,367.489 472.848,379.506 473.630,392.467 C 473.971,398.120 475.376,401.737 478.602,405.267 C 483.009,410.089 487.668,412.096 493.750,411.798 C 495.738,411.700 498.476,411.157 500.087,410.541" stroke="#FFD49F" fill="#FFD49F" stroke-width="1" />
  <path id="35" d="M 676.125,420.260 C 666.106,417.438 659.986,408.519 660.008,396.770 C 660.027,386.122 664.716,377.644 672.624,373.960 C 675.889,372.439 676.698,372.269 680.750,372.260 C 684.924,372.251 685.476,372.372 688.369,373.941 C 696.255,378.218 701.196,387.949 701.220,399.250 C 701.232,404.916 700.371,408.147 697.751,412.267 C 695.723,415.457 693.568,417.276 689.625,419.127 C 685.770,420.937 680.192,421.404 676.125,420.260M 688.367,418.413 C 694.190,416.235 698.870,410.527 699.958,404.278 C 701.145,397.462 699.013,387.775 694.917,381.377 C 691.176,375.533 684.288,372.308 678.066,373.488 C 670.520,374.918 665.265,379.806 662.461,388 C 661.158,391.808 660.899,399.792 661.957,403.487 C 665.630,416.298 676.938,422.689 688.367,418.413" stroke="#20140A" fill="#20140A" stroke-width="1" />
  <path id="35" d="M 593.784,492.728 C 589.819,491.731 584.232,488.988 581.654,486.773 C 581.654,486.773 579.559,484.973 579.559,484.973 C 579.559,484.973 577.062,486.510 577.062,486.510 C 570.452,490.577 561.331,492.347 553.720,491.040 C 549.181,490.260 542.884,487.192 539.861,484.286 C 535.027,479.640 532,473.507 532,468.360 C 532,466.229 532.227,465.673 533.700,464.200 C 535.546,462.354 537.119,462.070 539.980,463.067 C 541.359,463.548 541.896,464.263 543.489,467.726 C 545.847,472.854 547.802,475.096 551.394,476.796 C 558.898,480.346 567.192,478.088 571.588,471.298 C 571.588,471.298 573.500,468.345 573.500,468.345 C 573.500,468.345 573.500,460.714 573.500,460.714 C 573.500,460.714 573.500,453.082 573.500,453.082 C 573.500,453.082 570.321,452.024 570.321,452.024 C 556.620,447.464 547.673,430.506 553.207,419.586 C 555.585,414.893 559.590,411.923 565.866,410.200 C 570.322,408.976 584.966,408.666 591.255,409.663 C 604.225,411.718 609.900,415.404 611.567,422.853 C 613.611,431.986 606.025,444.261 594.750,450.067 C 592.275,451.342 589.427,452.647 588.422,452.966 C 588.422,452.966 586.593,453.547 586.593,453.547 C 586.593,453.547 586.240,458.716 586.240,458.716 C 585.606,468.031 586.611,472.111 590.500,476 C 592.975,478.474 595.461,479.745 599.308,480.502 C 601.842,481.001 602.844,480.969 605.409,480.312 C 607.097,479.880 609.327,478.986 610.364,478.327 C 613.196,476.526 617.882,471.359 618.957,468.851 C 620.619,464.975 624.124,463.504 627.516,465.259 C 630.698,466.904 631.297,471.674 628.980,476.913 C 627.596,480.041 627.350,479.318 628.520,475.559 C 630.293,469.865 629.631,467.116 626.219,465.990 C 623.553,465.110 622.080,465.969 620,469.617 C 614.500,479.264 605.766,483.747 597.279,481.280 C 592.305,479.834 588.850,477.005 586.386,472.361 C 585.351,470.409 585.265,469.591 585.258,461.519 C 585.258,461.519 585.250,452.789 585.250,452.789 C 585.250,452.789 590.750,450.483 590.750,450.483 C 601.015,446.180 605.830,441.625 609.481,432.759 C 610.952,429.188 611.096,428.416 610.846,425.428 C 610.284,418.733 606.957,415.128 599,412.598 C 592.995,410.688 589.931,410.298 580.750,410.274 C 570.437,410.247 566.261,410.861 561.647,413.087 C 555.275,416.159 552.654,420.949 553.150,428.611 C 553.394,432.373 553.716,433.612 555.258,436.733 C 558.501,443.298 564.850,449.018 571.433,451.307 C 573.357,451.976 574.256,452.594 574.612,453.495 C 574.908,454.240 574.996,457.546 574.832,461.632 C 574.578,467.925 574.436,468.733 573.171,471.057 C 571.342,474.417 567.601,477.721 564.430,478.774 C 562.551,479.398 560.766,479.560 557.570,479.397 C 552.611,479.144 549.304,477.771 546.210,474.676 C 544.538,473.005 542.016,468.521 542.005,467.198 C 542.003,466.894 541.448,466.050 540.774,465.323 C 539.259,463.688 536.223,463.504 534.451,464.939 C 533.468,465.735 533.302,466.307 533.357,468.690 C 533.442,472.294 534.185,474.509 536.595,478.334 C 541.572,486.236 549.213,490.192 559.500,490.195 C 565.943,490.197 569.792,489.204 575.044,486.183 C 577.130,484.982 579.126,484 579.478,484 C 579.830,484 580.922,484.706 581.905,485.569 C 584.577,487.915 591.229,490.902 595.669,491.751 C 600.924,492.755 604.581,492.694 609.149,491.526 C 615.034,490.021 618.290,488.190 622.875,483.806 C 627.526,479.360 628.492,479.510 624.197,484.012 C 617.943,490.570 612.188,493.066 602.750,493.315 C 598.611,493.425 595.830,493.243 593.784,492.728" stroke="#20140A" fill="#20140A" stroke-width="1" />
  <path id="35" d="M 487.888,411.290 C 484.385,410.282 481.440,408.372 478.602,405.267 C 475.376,401.737 473.971,398.120 473.630,392.467 C 472.848,379.506 479.576,367.489 489.880,363.440 C 492.089,362.572 493.786,362.310 497.250,362.299 C 501.269,362.286 502.109,362.454 505.111,363.860 C 515.375,368.668 520.236,380.418 516.653,391.750 C 513.971,400.229 507.317,407.777 500.087,410.541 C 496.594,411.877 491.098,412.214 487.888,411.290M 499.164,409.692 C 504.197,407.916 509.321,403.269 512.884,397.250 C 521.971,381.897 513.291,363.500 496.962,363.500 C 485.230,363.500 476.207,373.642 474.721,388.500 C 474.128,394.420 476.088,400.881 479.683,404.861 C 481.753,407.152 486.510,409.848 489.616,410.490 C 492.194,411.024 496.382,410.673 499.164,409.692" stroke="#20140A" fill="#20140A" stroke-width="1" />
  <path id="12" d="M 677.500,419.325 C 669.893,417.576 664.389,411.967 661.957,403.487 C 660.899,399.792 661.158,391.808 662.461,388 C 665.265,379.806 670.520,374.918 678.066,373.488 C 684.288,372.308 691.176,375.533 694.917,381.377 C 699.013,387.775 701.145,397.462 699.958,404.278 C 699.251,408.338 696.485,413.072 693.376,415.541 C 688.978,419.035 682.722,420.526 677.500,419.325" stroke="#704617" fill="#704617" stroke-width="1" />
  <path id="12" d="M 595.270,491.716 C 591.194,490.906 584.452,487.805 581.905,485.569 C 580.922,484.706 579.830,484 579.478,484 C 579.126,484 577.130,484.982 575.044,486.183 C 569.792,489.204 565.943,490.197 559.500,490.195 C 549.213,490.192 541.572,486.236 536.595,478.334 C 534.185,474.509 533.442,472.294 533.357,468.690 C 533.302,466.307 533.468,465.735 534.451,464.939 C 536.223,463.504 539.259,463.688 540.774,465.323 C 541.448,466.050 542.003,466.894 542.005,467.198 C 542.016,468.521 544.538,473.005 546.210,474.676 C 549.304,477.771 552.611,479.144 557.570,479.397 C 560.766,479.560 562.551,479.398 564.430,478.774 C 567.601,477.721 571.342,474.417 573.171,471.057 C 574.436,468.733 574.578,467.925 574.832,461.632 C 574.996,457.546 574.908,454.240 574.612,453.495 C 574.256,452.594 573.357,451.976 571.433,451.307 C 564.850,449.018 558.501,443.298 555.258,436.733 C 553.716,433.612 553.394,432.373 553.150,428.611 C 552.928,425.179 553.055,423.592 553.708,421.625 C 555.478,416.298 560.913,412.299 568.278,410.906 C 572.761,410.058 588.694,410.074 592.750,410.930 C 605.370,413.595 610.176,417.445 610.846,425.428 C 611.096,428.416 610.952,429.188 609.481,432.759 C 608.577,434.954 607.174,437.688 606.364,438.834 C 605.490,440.070 605.045,441.169 605.272,441.536 C 605.518,441.933 605.448,442.027 605.078,441.798 C 604.748,441.594 603.597,442.291 602.376,443.435 C 599.033,446.567 596.658,448.007 590.750,450.483 C 590.750,450.483 585.250,452.789 585.250,452.789 C 585.250,452.789 585.258,461.519 585.258,461.519 C 585.265,469.591 585.351,470.409 586.386,472.361 C 588.850,477.005 592.305,479.834 597.279,481.280 C 605.766,483.747 614.500,479.264 620,469.617 C 622.080,465.969 623.553,465.110 626.219,465.990 C 629.639,467.118 630.295,469.873 628.506,475.580 C 627.334,479.322 627.360,479.146 627.067,480.233 C 626.944,480.111 625.024,481.752 622.798,483.880 C 615.125,491.216 605.933,493.832 595.270,491.716" stroke="#704617" fill="#704617" stroke-width="1" />
  <path id="42" d="M 599.500,529.629 C 599.500,529.353 600.452,528.976 604.288,527.750 C 606.543,528.091 611.782,527.037 610.341,526.532 C 609.830,526.352 611.553,525.699 614.617,524.910 C 622.041,523 636.725,515.947 643.518,511.029 C 652.965,504.190 659.736,496.351 664.960,486.209 C 666.081,484.031 667.005,482.587 667.745,481.493 C 667.299,480.772 668.589,477.495 669.176,477.858 C 669.471,478.041 669.535,477.813 669.336,477.293 C 668.906,476.173 669.462,473.918 670.398,472 C 670.689,472 670.827,471.098 670.721,469.875 C 670.566,468.095 670.601,467.993 670.931,469.250 C 671.157,470.110 671.285,467.014 671.232,462 C 671.145,453.813 671.160,453.652 671.467,459.500 C 671.467,459.500 671.796,465.750 671.796,465.750 C 671.796,465.750 671.898,459.416 671.898,459.416 C 672,453.055 671.778,451.269 670.947,451.783 C 670.702,451.935 670.500,451.479 670.500,450.771 C 670.500,448.641 667.103,438.808 664.730,434.067 C 663.508,431.625 660.931,427.451 659.004,424.791 C 657.077,422.130 655.500,419.888 655.500,419.810 C 655.500,419.592 648.861,413 648.643,413 C 648.538,413 646.232,411.320 643.520,409.265 C 640.808,407.212 637.244,404.680 635.599,403.640 C 633.955,402.601 632.529,401.525 632.429,401.250 C 632.331,400.975 631.913,400.736 631.500,400.718 C 630.490,400.675 628.077,399.572 627.922,398.666 C 627.390,398.805 626.347,398.600 625.603,398.212 C 623.951,397.550 625.827,396.555 623.910,396.668 C 623.373,396.809 622.217,396.613 621.341,396.231 C 621.446,394.831 617.505,394.473 617.500,394.162 C 616.812,394.296 615.800,394.217 615.250,393.988 C 612.769,393.601 616.889,393.043 614.159,393.076 C 613.731,393.430 613.092,393.433 610.625,391.337 C 609.869,391.185 608.237,390.820 607,390.526 C 600.473,388.972 593.161,387.916 588.378,387.838 C 585.423,387.789 583.004,387.548 583.003,387.301 C 582.997,386.362 563.192,387.687 556.750,389.057 C 552.592,389.942 545.878,392.044 546.195,392.361 C 546.359,392.526 544.413,393.481 541.871,394.484 C 537.085,396.373 527.806,401.016 525.339,402.755 C 524.563,403.303 522.239,405.061 520.174,406.663 C 515.773,410.077 513.951,410.247 516.561,406.999 C 519.440,403.416 531.469,396.385 541.750,392.276 C 546.255,390.474 555.396,388.029 561.500,386.990 C 566.821,386.086 584.170,385.779 590.574,386.478 C 600.711,387.582 611.777,390.165 620,393.346 C 624.959,395.264 633.885,399.683 637.358,401.938 C 641.222,404.447 650.449,411.896 653.488,414.959 C 659.245,420.762 663.976,427.379 667.107,434.012 C 671.872,444.106 673.273,450.142 673.198,460.250 C 673.144,467.531 671.770,476.219 670.413,477.854 C 670.054,478.287 669.726,479.319 669.685,480.147 C 669.596,481.912 664.574,492.241 662.753,494.406 C 662.063,495.224 661.500,496.106 661.500,496.365 C 661.500,496.623 660.487,497.863 659.250,499.118 C 658.013,500.373 657,501.584 657,501.810 C 657,502.343 651.407,508 650.880,508 C 650.659,508 649.047,509.125 647.298,510.500 C 645.548,511.875 643.833,513 643.487,513 C 643.141,513 641.484,513.861 639.804,514.913 C 638.125,515.965 635.288,517.596 633.500,518.538 C 631.712,519.480 630.076,520.521 628,521.433 C 628,522.106 625.126,523.638 624.543,523.277 C 623.880,522.867 621.114,523.984 620.806,524.785 C 620.625,525.256 619.776,525.500 618.319,525.500 C 616.888,525.500 616.013,525.746 615.839,526.198 C 615.363,527.438 599.500,530.769 599.500,529.629" stroke="#FCE0B3" fill="#FCE0B3" stroke-width="1" />
  <path id="19" d="M 753.012,814.875 C 753.019,814.531 753.258,813.237 753.544,812 C 756.918,797.389 756.654,771.362 753.035,761.843 C 752.359,760.065 752.814,759.923 755.307,761.134 C 755.307,761.134 757.510,762.204 754.908,764.279 C 754.908,764.279 755.760,767.264 755.760,767.264 C 756.228,768.907 756.763,770.415 756.948,770.617 C 757.361,771.068 761.415,769.554 764.614,767.756 C 765.914,767.025 767.239,766.588 767.558,766.785 C 768.206,767.186 767.851,776.074 766.942,782.250 C 766.294,786.645 763.890,795.971 762.486,799.541 C 761.048,803.194 758.270,808.577 755.863,812.375 C 753.970,815.362 752.986,816.225 753.012,814.875" stroke="#DB9B58" fill="#DB9B58" stroke-width="1" />
  <path id="54" d="M 565,529.543 C 556.528,528.226 551.948,527.149 545.250,524.901 C 538.282,522.562 537.650,522.275 541.842,522.503 C 542.341,522.505 543.312,522.799 544,523.157 C 547.391,524.921 558.500,527.525 568.026,528.790 C 574.834,529.693 589.202,529.542 597.621,528.477 C 603.417,527.745 604.577,528.062 600.250,529.197 C 594.976,530.579 573.051,530.795 565,529.543" stroke="#FCE5B8" fill="#FCE5B8" stroke-width="1" />
  <path id="54" d="M 593.500,493.786 C 587.766,492.396 583.365,490.228 580.766,487.517 C 579.331,486.019 579.302,486.012 578.282,486.952 C 576.980,488.151 573.794,489.629 569.038,491.241 C 565.868,492.316 564.442,492.498 559.288,492.488 C 550.048,492.469 544.043,490.120 538.191,484.236 C 533.350,479.368 530.977,474.639 530.771,469.445 C 530.536,463.529 532.302,461.500 537.687,461.500 C 541.218,461.500 542.967,462.902 545.083,467.429 C 545.934,469.249 547.163,471.436 547.813,472.288 C 549.233,474.149 552.845,476.197 556.194,477.039 C 560.612,478.150 565.715,476.125 569.125,471.906 C 571.898,468.476 572.169,467.632 572.389,461.750 C 572.654,454.673 572.367,453.957 568.839,452.844 C 561.245,450.450 552.654,440.717 550.968,432.599 C 550.079,428.315 550.566,421.719 551.986,418.802 C 553.562,415.566 556.894,412.019 557.475,412.959 C 557.760,413.421 557.353,414.180 556.197,415.336 C 553.880,417.653 551.968,421.606 551.644,424.752 C 550.501,435.816 559.028,448.265 570.321,452.024 C 570.321,452.024 573.500,453.082 573.500,453.082 C 573.500,453.082 573.500,460.714 573.500,460.714 C 573.500,460.714 573.500,468.345 573.500,468.345 C 573.500,468.345 571.588,471.298 571.588,471.298 C 567.192,478.088 558.898,480.346 551.394,476.796 C 547.802,475.096 545.847,472.854 543.489,467.726 C 541.896,464.263 541.359,463.548 539.980,463.067 C 537.119,462.070 535.546,462.354 533.700,464.200 C 532.227,465.673 532,466.229 532,468.360 C 532,473.507 535.027,479.640 539.861,484.286 C 542.884,487.192 549.181,490.260 553.720,491.040 C 561.331,492.347 570.452,490.577 577.062,486.510 C 577.062,486.510 579.559,484.973 579.559,484.973 C 579.559,484.973 581.654,486.773 581.654,486.773 C 586.962,491.332 594.776,493.721 603.250,493.373 C 608.817,493.144 614.314,491.719 617.382,489.709 C 619.185,488.528 619.264,489.189 617.498,490.675 C 614.782,492.961 610.054,494.122 602.750,494.297 C 598.524,494.399 595.288,494.219 593.500,493.786" stroke="#FCE5B8" fill="#FCE5B8" stroke-width="1" />
  <path id="21" d="M 623.270,489.375 C 623.160,489.031 623.111,488.188 623.160,487.500 C 623.221,486.658 623.020,486.300 622.547,486.401 C 622.160,486.484 623.078,485.219 624.587,483.589 C 627.448,480.499 629.401,477 629.867,474.127 C 631.114,473.689 632.518,477.478 632.309,477.480 C 632.139,478.316 631.865,479.658 631.699,480.461 C 631.534,481.264 630.875,482.413 630.235,483.014 C 629.596,483.615 629.184,484.399 629.322,484.757 C 629.460,485.115 628.582,486.441 627.371,487.704 C 625.202,489.968 623.659,490.597 623.270,489.375" stroke="#F9CCA8" fill="#F9CCA8" stroke-width="1" />
  <path id="54" d="M 598.250,480.297 C 594.879,479.464 592.823,478.324 590.494,475.994 C 586.611,472.111 585.606,468.026 586.240,458.716 C 586.240,458.716 586.593,453.547 586.593,453.547 C 586.593,453.547 588.422,452.955 588.422,452.955 C 589.427,452.630 591.312,451.832 592.609,451.182 C 595.322,449.822 596.428,449.632 595.563,450.675 C 595.255,451.046 593.484,451.982 591.626,452.756 C 586.508,454.889 586.811,454.255 587.168,462.123 C 587.422,467.692 587.681,469.394 588.525,471.050 C 590.080,474.098 593.381,477.120 596.264,478.135 C 603.112,480.547 607.646,479.441 613.055,474.043 C 614.872,472.228 616.962,469.556 617.697,468.104 C 619.391,464.760 621.356,463.505 624.893,463.502 C 627.890,463.500 629.677,464.425 630.775,466.550 C 631.601,468.146 631.751,472.286 631,472.750 C 630.697,472.937 630.500,472.247 630.500,471.005 C 630.500,468.380 629.380,466.222 627.516,465.259 C 624.124,463.504 620.619,464.975 618.957,468.851 C 617.884,471.355 613.197,476.526 610.375,478.320 C 608.452,479.543 603.590,481.034 601.770,480.957 C 601.209,480.934 599.625,480.637 598.250,480.297" stroke="#FCE5B8" fill="#FCE5B8" stroke-width="1" />
  <path id="13" d="M 557.500,413.012 C 557.500,412.329 559.370,411.178 561.970,410.260 C 565.005,409.190 574.855,407.500 578.061,407.500 C 582.470,407.500 580.206,408.390 574.250,409 C 567.573,409.682 563.819,410.568 560.524,412.238 C 557.745,413.646 557.500,413.709 557.500,413.012" stroke="#F9E9BE" fill="#F9E9BE" stroke-width="1" />
  <path id="7" d="M 383.986,302.602 C 364.132,291 352.769,266.940 354.938,241.090 C 355.878,229.871 357.582,223.354 361.924,214.369 C 369.443,198.809 380.575,187.779 396.029,180.577 C 406.014,175.924 412.951,174.375 423.750,174.387 C 432.518,174.398 436.090,174.907 444.237,177.309 C 454.086,180.212 458.992,182.801 467.705,189.692 C 471.988,193.080 482.988,204.666 482.996,205.799 C 482.998,206.101 481.332,207.173 479.292,208.180 C 477.252,209.189 472.505,212.091 468.740,214.631 C 458.346,221.646 459.602,221.213 457.449,218.532 C 451.851,211.562 444.108,206.328 435.911,203.970 C 430.776,202.494 421.963,202.123 416.902,203.171 C 399.139,206.846 386.157,219.936 380.888,239.484 C 379.355,245.173 379.377,255.226 380.936,261.250 C 382.983,269.161 387.071,276.805 392.279,282.460 C 393.693,283.995 394.764,285.498 394.658,285.800 C 394.553,286.103 394.812,286.636 395.233,286.986 C 396.288,287.861 396.188,289.465 394.969,291.250 C 394.406,292.075 392.606,295.394 390.969,298.625 C 389.332,301.856 387.822,304.500 387.613,304.500 C 387.404,304.500 385.772,303.646 383.986,302.602" stroke="#ECB06A" fill="#ECB06A" stroke-width="1" />
  <path id="54" d="M 612.050,426.716 C 611.982,423.267 610.835,419.652 609.029,417.197 C 605.513,412.416 594.721,409.113 582,408.927 C 579.112,408.885 577.425,408.754 578.250,408.637 C 579.075,408.519 579.964,408.216 580.225,407.962 C 581.424,406.796 593.186,407.923 599.207,409.781 C 604.234,411.331 606.875,412.886 609.453,415.815 C 612.436,419.204 613.699,424.256 612.500,428 C 612.181,428.995 612.090,428.735 612.050,426.716" stroke="#FCE5B8" fill="#FCE5B8" stroke-width="1" />
  <path id="5" d="M 393.440,283.625 C 387.199,277.075 383.161,269.849 380.936,261.250 C 379.377,255.226 379.355,245.173 380.888,239.484 C 384.441,226.302 391.469,216.017 401.360,209.524 C 409.086,204.452 417.279,202.210 426.500,202.646 C 437.426,203.162 445.262,206.548 453.485,214.304 C 457.279,217.884 459.759,221.178 459.263,221.979 C 459.080,222.274 458.717,222.385 458.457,222.224 C 458.197,222.062 456.066,223.464 453.723,225.340 C 451.380,227.215 448.178,229.761 446.606,230.996 C 438.477,237.391 418.072,258.893 409.356,270.250 C 404.668,276.358 398,286.185 398,286.985 C 398,288.094 396.990,287.351 393.440,283.625" stroke="#D18D47" fill="#D18D47" stroke-width="1" />
  <path id="42" d="M 502.406,493.284 C 501.495,491.791 500.391,490.471 499.952,490.351 C 499.222,490.152 498.677,489.183 495.964,483.250 C 493.625,478.132 491.505,466.930 491.502,459.661 C 491.500,453.825 492.216,448.510 493.814,442.500 C 495.036,437.904 496.077,435.910 496.849,436.682 C 497.053,436.887 496.986,437.211 496.699,437.402 C 495.873,437.953 495.442,439.519 495.230,442.745 C 495.092,444.837 494.773,445.929 494.170,446.370 C 493.435,446.907 493.320,447.786 493.398,452.224 C 493.451,455.236 493.281,457.577 492.995,457.753 C 492.349,458.152 492.353,461.350 493,461.750 C 493.275,461.920 493.500,462.724 493.500,463.538 C 493.500,465.889 495.926,477.442 496.812,479.310 C 497.255,480.243 497.649,481.624 497.687,482.378 C 497.724,483.132 497.933,483.750 498.151,483.750 C 498.368,483.750 499.349,485.325 500.332,487.250 C 501.313,489.175 502.765,491.717 503.558,492.900 C 505.058,495.137 505.329,496 504.531,496 C 504.273,496 503.317,494.778 502.406,493.284" stroke="#FCE0B3" fill="#FCE0B3" stroke-width="1" />
  <path id="21" d="M 604.163,446.568 C 603.949,445.751 603.673,445.663 602.434,446.019 C 601.093,446.404 601.246,446.133 604.143,443.005 C 607.670,439.195 610.111,435.029 612.739,431 C 614.188,431 614.968,433.055 614.486,435.600 C 614.240,436.892 613.817,438.355 613.544,438.850 C 613.271,439.345 612.695,440.550 612.263,441.529 C 611.341,443.615 607.856,446.682 605.833,447.187 C 604.682,447.474 604.369,447.358 604.163,446.568" stroke="#F9CCA8" fill="#F9CCA8" stroke-width="1" />
  <path id="20" d="M 439.250,472.296 C 438.975,472.188 437.062,471.716 435,471.245 C 423.777,468.686 415.597,460.790 412.214,449.250 C 410.789,444.394 411.043,434.514 412.738,428.761 C 414.596,422.457 416.141,419.841 420.738,415.207 C 425.112,410.798 428.207,409.038 434,407.663 C 439.050,406.464 446.567,407.009 452.118,408.976 C 459.963,411.755 464.960,415.287 468.570,420.603 C 472.858,426.918 474.286,433.039 473.829,443.146 C 473.402,452.575 471.858,457.959 468.171,462.872 C 465.640,466.243 459.200,469.682 452.500,471.236 C 449.354,471.966 440.267,472.693 439.250,472.296" stroke="#F79A65" fill="#F79A65" stroke-width="1" />
  <path id="12" d="M 489.616,410.490 C 486.510,409.848 481.753,407.152 479.683,404.861 C 476.088,400.881 474.128,394.420 474.721,388.500 C 476.207,373.642 485.230,363.500 496.962,363.500 C 510.457,363.500 519.487,376.599 515.748,390.750 C 514.198,396.615 508.680,404.176 503.545,407.471 C 499.235,410.237 493.940,411.385 489.616,410.490" stroke="#704617" fill="#704617" stroke-width="1" />
</g></svg>